<?xml version="1.0" standalone="no"?>
<!DOCTYPE svg PUBLIC "-//W3C//DTD SVG 20010904//EN"
 "http://www.w3.org/TR/2001/REC-SVG-20010904/DTD/svg10.dtd">
<svg version="1.0" xmlns="http://www.w3.org/2000/svg"
 width="700.000000pt" height="700.000000pt" viewBox="0 0 700.000000 700.000000"
 preserveAspectRatio="xMidYMid meet">
<metadata>
Created by potrace 1.11, written by Peter Selinger 2001-2013
</metadata>
<g transform="translate(0.000000,700.000000) scale(0.100000,-0.100000)"
fill="#000000" stroke="none">
<path d="M6110 5169 l0 -941 -47 64 c-180 240 -428 391 -741 450 -105 20 -408
17 -512 -5 -238 -51 -412 -147 -581 -317 -227 -230 -372 -553 -436 -970 -26
-168 -25 -672 0 -855 99 -693 451 -1162 973 -1295 215 -55 531 -42 755 31 214
70 412 207 550 381 l37 47 6 -37 c3 -20 6 -82 6 -138 0 -56 3 -135 6 -177 l7
-77 173 0 174 0 0 2390 0 2390 -185 0 -185 0 0 -941z m-790 -754 c339 -51 584
-235 749 -562 l41 -83 0 -780 0 -781 -26 -52 c-54 -106 -119 -194 -208 -282
-127 -125 -258 -198 -441 -246 -115 -30 -379 -38 -495 -15 -171 35 -288 95
-411 213 -263 251 -396 698 -375 1260 13 357 66 610 172 826 193 394 544 571
994 502z"/>
<path d="M1525 4753 c-16 -2 -73 -10 -125 -19 -533 -90 -964 -487 -982 -904
l-3 -65 187 -3 187 -2 6 47 c23 180 96 308 241 423 190 151 436 221 724 207
371 -19 621 -167 734 -435 47 -112 57 -179 63 -454 l6 -256 -484 -5 c-517 -5
-605 -12 -815 -62 -355 -85 -629 -253 -778 -479 -108 -162 -149 -307 -149
-521 0 -153 14 -240 60 -353 123 -309 412 -526 779 -588 128 -22 366 -22 494
-1 325 55 624 210 824 429 37 41 66 65 66 56 0 -85 30 -294 56 -386 l15 -52
204 0 c164 0 205 3 205 13 0 8 -11 47 -25 87 -27 79 -48 182 -66 325 -8 59
-14 437 -18 1110 l-7 1020 -26 97 c-29 107 -88 240 -139 315 -18 26 -62 79
-98 116 -224 234 -549 350 -964 346 -78 -1 -155 -4 -172 -6z m1035 -2119 l0
-366 -40 -77 c-83 -160 -227 -309 -396 -412 -341 -206 -817 -236 -1101 -68
-32 19 -89 66 -129 105 -158 156 -216 379 -158 609 68 265 347 462 759 535
165 30 295 37 703 39 l362 1 0 -366z"/>
<path d="M3292 1802 c-106 -38 -166 -128 -166 -248 0 -127 72 -220 191 -244
112 -24 220 5 281 76 85 96 84 243 -1 340 -52 59 -104 84 -185 90 -50 3 -81 0
-120 -14z"/>
</g>
</svg>
