<svg version="1" xmlns="http://www.w3.org/2000/svg" width="933.333" height="933.333" viewBox="0 0 700.000000 700.000000"><path d="M566 220.7l-.1 73.8-2.1-3c-8.2-11.1-24.4-24.3-36.8-29.7-14.3-6.3-34.3-9.2-52.3-7.7-48.8 4.1-82.4 41.9-91.4 102.9-2.4 16.2-2.4 53.3 0 68.8 7.2 46.5 27.9 79.7 59.2 95.2 12.2 6 21.5 8.2 38.5 8.7 33.9 1.2 61.7-9.9 80-31.9l5.5-6.6.6 11.7c.4 6.4.7 14 .8 16.8l.1 5.3h28V147h-30v73.7zm-53 61.8c21 5.5 39.2 21 49.9 42.2l3.1 6.2V457.6l-4.6 7.4c-11.9 19.3-26.6 30.4-47.9 36.1-10.8 2.9-33.8 3.2-43.5.6-24-6.4-40.9-24.1-50.4-52.8-5.3-15.8-6.7-25.7-7.3-49.4-1-40.7 5.2-68.9 19.8-90 9.9-14.3 24.6-24.5 40.4-27.9 9.1-2 31.3-1.5 40.5.9zM185 254c-26.3 2.5-49.2 12.5-66.6 29.3-13.6 13-21 26.8-22.1 41.3l-.6 7.1 5.4.6c3 .4 9.7.7 15 .7h9.6l.7-6.2c2-20 21.2-38.4 46.5-44.9 10.2-2.6 26.4-3.5 37.6-2 23.3 3.1 39.7 13.5 48 30.4 5.3 10.7 6.5 18.1 6.5 40.4V370h-34.8c-38.7 0-51.4 1.1-70.3 5.9-22.1 5.6-39 15-51.6 28.5-13.1 14-18.7 28.8-18.7 49.6 0 8.7.5 14.5 1.7 19 6.9 26.2 27.9 46.3 56.3 54 11.3 3.1 35.4 3.8 48.4 1.6 24.9-4.4 49.9-17.4 63.8-33.2 2.6-2.9 5-5.4 5.3-5.4.3 0 .9 4 1.2 8.8.6 8.3 2.7 20.5 4.2 24.4.6 1.6 2.4 1.8 16.6 1.8 18 0 17.4.4 14.3-8.1-.8-2.4-2.5-9.6-3.6-15.9-2-10.9-2.2-15.7-2.8-95-.6-81.7-.6-83.7-2.8-91.5-5.7-20.8-19.5-38.4-38.4-48.8-7-3.9-21-8.5-30.2-10.1-10.9-1.9-28.2-2.6-38.6-1.6zm80 168.8v29.8l-5.2 8.4c-11.2 18.2-29.6 31.7-52.5 38.6-11.6 3.5-34.9 4.5-45.7 2-10.4-2.5-18.9-7-26.5-14.1-11.6-11-15.5-21.1-14.9-38.4.3-10 .6-11.3 4.1-18.3 10.1-20.5 36.2-33.7 72.2-36.7 5.5-.5 23.2-.9 39.3-1l29.2-.1v29.8zM335.5 486.9c-4.5 1.1-6.9 2.6-10.3 6.5-5.8 6.6-6.7 15.3-2.4 23.6 3.6 7.1 8.7 10 17.9 10 10.2 0 16.8-3.7 20.4-11.5 7.4-16.1-7.7-32.9-25.6-28.6z"/></svg>