<svg version="1" xmlns="http://www.w3.org/2000/svg" width="933.333" height="933.333" viewBox="0 0 700.000000 700.000000"><path d="M206.3 226.1c-29.3 2.8-55.9 16.2-72.9 36.7-8.9 10.7-15.3 26.6-15.4 37.8 0 3.1.1 3.1 6.1 3.8 3.4.3 10.1.6 15 .6h8.8l.6-4.8c1.6-11.7 5.8-19.7 15-28.8 15.8-15.6 41.6-22.9 69-19.4 23.3 2.9 39.2 12.6 48.2 29.6 5.1 9.6 6.3 16.5 7 39.6l.6 20.8h-34.7c-35.8 0-47.2.7-63.7 4-26.6 5.4-49.9 18-62.4 33.8-6 7.4-11.9 19.8-13.9 28.9-2.3 10.2-2.1 27 .4 36.7 6.6 26 27.8 46.1 56.5 53.7 11.1 2.9 34.4 3.7 47.5 1.5 25-4.1 46.6-15.1 63.1-32.3l6.6-6.8 1.2 11c.7 6 1.9 14 2.7 17.7l1.6 6.8h33l-.6-2.3c-.3-1.2-1.6-6.3-3-11.2-4.2-15.6-4.6-25.2-4.6-101.6 0-45-.4-75.6-1.1-81.7-4.8-43.3-34.7-69.9-83.6-74.1-13.1-1.2-14-1.2-27 0zM288 394.2v29.1l-3.1 5.6c-12 21.2-32.1 36.5-57 43.3-7.3 2-10.7 2.3-25.9 2.3-16.4-.1-17.9-.2-24.2-2.7-24.4-9.3-37.1-27.9-35.5-51.8 1.2-18.3 11.1-31.8 30.6-41.9 9.9-5.1 21-8.5 34.1-10.5 13.8-2.1 16.3-2.2 51.3-2.4l29.7-.2v29.2zM361 231.2c0 .7 19.3 58.5 42.9 128.3 23.5 69.9 43.6 129.4 44.5 132.2l1.8 5.3h34.3c31.7 0 34.3-.1 35-1.7.4-1 20-59.2 43.6-129.3 23.6-70.1 43.6-129.2 44.4-131.3.8-2 1.5-4 1.5-4.2 0-.3-16.9-.4-37.6-.3l-37.7.3-23.7 86.2c-13.1 47.4-24.2 87.3-24.7 88.8-.7 2.1-5.5-14.3-25.3-86.2l-24.5-88.8-37.3-.3c-29.6-.2-37.2 0-37.2 1z"/></svg>