<?xml version="1.0" standalone="no"?>
<!DOCTYPE svg PUBLIC "-//W3C//DTD SVG 20010904//EN"
 "http://www.w3.org/TR/2001/REC-SVG-20010904/DTD/svg10.dtd">
<svg version="1.0" xmlns="http://www.w3.org/2000/svg"
 width="700.000000pt" height="700.000000pt" viewBox="0 0 700.000000 700.000000"
 preserveAspectRatio="xMidYMid meet">
<metadata>
Created by potrace 1.14, written by Peter Selinger 2001-2017
</metadata>
<g transform="translate(0.000000,700.000000) scale(0.100000,-0.100000)"
fill="#000000" stroke="none">
<path d="M6110 5169 l0 -941 -47 63 c-173 231 -403 377 -693 441 -138 30 -428
33 -556 6 -241 -53 -417 -148 -585 -319 -227 -229 -371 -550 -436 -969 -26
-168 -26 -671 0 -855 99 -694 450 -1162 973 -1295 165 -43 426 -44 618 -5 278
57 517 203 687 417 l37 47 6 -31 c3 -17 6 -79 6 -138 0 -59 3 -141 6 -183 l7
-77 173 0 174 0 0 2390 0 2390 -185 0 -185 0 0 -941z m-689 -773 c288 -73 500
-250 645 -538 l44 -88 0 -780 0 -781 -31 -62 c-133 -262 -355 -442 -640 -517
-119 -31 -381 -40 -499 -16 -171 35 -288 95 -411 213 -263 251 -396 698 -375
1260 19 525 135 873 367 1100 81 79 118 107 199 147 146 74 262 97 460 91 111
-3 168 -10 241 -29z"/>
<path d="M1520 4753 c-324 -34 -632 -176 -845 -389 -157 -158 -249 -347 -257
-534 l-3 -65 187 -3 187 -2 6 47 c3 27 11 68 16 93 48 212 271 416 542 494
170 49 426 58 602 21 310 -65 516 -257 581 -542 10 -47 17 -148 21 -325 l6
-256 -484 -5 c-381 -3 -509 -8 -599 -21 -614 -89 -1008 -369 -1115 -791 -60
-236 -38 -462 64 -670 183 -372 606 -576 1107 -535 374 30 678 164 922 407 56
56 102 96 102 88 0 -82 31 -292 56 -383 l15 -52 204 0 c164 0 205 3 205 13 0
8 -11 47 -25 87 -27 79 -48 182 -66 325 -8 59 -14 437 -18 1110 l-7 1020 -26
97 c-52 191 -138 338 -269 463 -227 215 -535 318 -936 313 -76 0 -154 -3 -173
-5z m1040 -2119 l0 -366 -40 -77 c-144 -276 -443 -493 -776 -560 -213 -43
-421 -37 -582 18 -112 39 -183 83 -268 167 -229 226 -242 606 -29 841 136 150
367 260 649 308 148 25 294 32 689 34 l357 1 0 -366z"/>
<path d="M3292 1802 c-106 -38 -166 -128 -166 -248 0 -127 72 -220 191 -244
112 -24 220 5 281 76 85 96 84 243 -1 340 -52 59 -104 84 -185 90 -50 3 -81 0
-120 -14z"/>
</g>
</svg>
