<svg version="1" xmlns="http://www.w3.org/2000/svg" width="933.333" height="933.333" viewBox="0 0 700.000000 700.000000"><path d="M616 259.1v49.1l-4-5.1c-13.7-17.3-40.6-25.9-65-20.7-27.7 5.9-47.1 30.4-52.5 66.3-1.9 12.6-1.9 36 0 48.6 5.2 34.9 23.9 59.3 50.8 66.4 4.1 1.1 9.9 1.6 17.2 1.6 20-.2 35-6 47.5-18.5l7-7V462h19V210h-20v49.1zm-35.5 41.4c13.3 3.5 26.5 14.3 32.8 26.7l2.7 5.5v83.8l-2.9 5c-9.1 15.6-23.2 24.3-42.4 26.1-32.4 2.9-52.9-18.9-56.7-60.6-1.3-14.4-.1-33.5 3-45.7 5.4-21.3 18.1-36.4 34.2-40.7 7.1-2 22-2 29.3-.1zM115.9 282.5c-25 5.1-45.7 22.8-49.8 42.3-2 9.7-2.5 9.2 9.4 9.2H86v-3.8c0-11.5 13.4-25 29.5-29.8 8.3-2.5 26.7-2.5 35 0 11.5 3.4 19.6 10.3 24.4 20.6 2.3 5 2.6 6.9 2.9 21.1l.4 15.6-25.8.6c-27.7.6-38.4 2-51.4 6.2-14.7 4.9-28.3 15.3-34.2 26.2-9.9 18-7 41.9 6.9 57.4 22 24.4 70.8 23 98.2-2.8 3.6-3.5 6.6-6.3 6.7-6.3.1 0 .4 3.5.7 7.7.4 4.3 1.1 9.5 1.7 11.5l1.1 3.8h11.1c12.6 0 11.5 1.3 8.1-10-1.4-4.7-1.7-14-2.3-64.5-.8-64.9-.9-65.9-7.2-77.7-3.6-6.8-14-17-21.3-21-9.2-4.9-18.6-7-34-7.4-9.4-.2-16.2.1-20.6 1.1zM178 393.7v19.8l-3.2 5.5c-4.6 8.1-13.9 16.4-23.3 21.1-11.8 5.7-18.6 7.2-32.4 6.8-10.8-.4-12.1-.6-18.3-3.7-12.8-6.3-19.3-16.7-19.1-30.8.2-21.4 18.6-34.4 53.3-37.7 1.9-.2 12.4-.5 23.3-.5l19.7-.2v19.7zM227 284.6c0 .3 7.5 22.7 16.6 49.7 9.1 27.1 22.5 66.9 29.8 88.4l13.1 39.3h46.3l3.3-9.8c1.7-5.3 15.1-44.8 29.6-87.7 14.4-42.9 26.3-78.6 26.3-79.3 0-.9-5.6-1.2-24.8-1.2h-24.8l-15.9 57.7c-8.7 31.8-16.1 58.3-16.4 59-.3.7-7.3-23.2-15.5-53-8.3-29.8-15.6-56.3-16.4-59l-1.4-4.7h-24.9c-13.7 0-24.9.3-24.9.6zM426.5 437.4c-4 1.8-6.1 4.3-7.3 8.8-3.5 13 9.2 21.7 22 15.2 5.6-2.9 7.5-11.8 4-18.3-3.3-6.2-11.7-8.8-18.7-5.7z"/></svg>