<svg version="1" xmlns="http://www.w3.org/2000/svg" width="933.333" height="933.333" viewBox="0 0 700.000000 700.000000"><path d="M166.8 257.5c-33.8 6.4-61.6 29.9-67.3 57-2.6 12.4-3.6 11.5 11.9 11.5h13.4l1.1-6.2c2.9-16.7 16.5-30.7 36.1-37.4 9.2-3.1 23.8-4.4 36.2-3.3 21.9 2 36.7 11 45 27.3 4.5 8.8 5.8 16.8 5.8 35.7v16.7l-35.7.5c-30.3.4-37.5.8-46.8 2.5-39.5 7.4-64.5 26.7-72 55.7-1.9 7.6-1.9 25 0 33.3 3.8 16.2 16.2 32 32.1 40.9 14.1 7.9 34.4 11.5 53.3 9.4 25.3-2.7 46.5-12.4 62.3-28.4 7.7-7.7 6.9-8.4 8.7 7.3.6 5.2 1.6 11.2 2.1 13.2l1.1 3.8h14.4c15.8 0 15.6.1 13.4-5.7-.6-1.5-2-6.9-3.2-11.8-1.9-8.5-2.1-13.2-2.7-85-.6-74-.7-76.2-2.8-84-3.8-13.7-8.5-21.9-18.1-31.6-7.1-7-10.2-9.3-18.1-13.2-15.1-7.4-22.3-8.9-44-9.3-13.2-.2-20.7.1-26.2 1.1zM249 405.7c0 25.6 0 25.8-2.5 30.8-8.5 16.6-29.3 32.8-49 38-30.8 8.1-58.4.7-71.1-19.1-4.9-7.7-6.7-15-6.2-25.8.7-14.8 6.2-24.6 19.1-33.6 10.8-7.6 26.3-12.8 44.3-14.9 3.8-.5 20.1-.9 36.2-1l29.2-.1v25.7zM314 260.4c0 .5 15.1 45.3 55.2 164.3l24.3 72.3h30.8c16.9 0 30.7-.2 30.7-.4s17.8-53 39.5-117.5C516.2 314.7 534 261.5 534 261c0-.7-11.9-.9-33.2-.8l-33.2.3-21.5 78.2c-11.9 43-21.9 77.9-22.2 77.5-.3-.4-10.2-35.7-22-78.5L380.5 260h-33.2c-18.3 0-33.3.2-33.3.4zM563.7 393.5c-13.2 3.6-27.5 15.1-33.1 26.6-10.7 22.2-5.9 47.8 11.9 63.7 10 8.8 21.5 13.2 35 13.2 4.4 0 10.3-.6 13.2-1.4 23-6.1 39.3-27.2 39.3-50.8 0-15.4-4.6-26.4-15.5-37.4-10.8-10.9-22-15.4-37.5-15.3-4.7 0-10.7.7-13.3 1.4z"/></svg>