<svg id="Layer_3" enable-background="new 0 0 64 64" height="512" viewBox="0 0 64 64" width="512" xmlns="http://www.w3.org/2000/svg">
    <path d="m31.139 19h-27.139c-.551 0-1 .449-1 1v5h30.165c-1.05-1.808-1.754-3.836-2.026-6zm-24.139 4h-2v-2h2zm4 0h-2v-2h2zm4 0h-2v-2h2z"/>
    <path d="m34.53 27h-31.53v33c0 .552.449 1 1 1h44c.551 0 1-.448 1-1v-27.139c-.657.083-1.321.139-2 .139-5.039 0-9.535-2.347-12.47-6zm-29.53 11h2v2h-2zm0 4h38v2h-38zm0 4h2v2h-2zm38 6h-38v-2h38zm4 0h-2v-2h2zm0-4h-38v-2h38zm0-4h-2v-2h2zm0-4h-38v-2h38z"/>
    <path d="m48 9.08v-.08c0-.551-.449-1-1-1s-1 .449-1 1v.08c.328-.047.66-.08 1-.08s.672.033 1 .08z"/>
    <path d="m47 3c-7.72 0-14 6.28-14 14s6.28 14 14 14 14-6.28 14-14-6.28-14-14-14zm8.924 19.383c-.155.373-.52.617-.924.617h-4.142c-.447 1.72-2 3-3.858 3s-3.411-1.28-3.858-3h-4.142c-.404 0-.769-.244-.924-.617-.155-.374-.069-.804.217-1.09 1.101-1.101 1.707-2.564 1.707-4.122v-1.171c0-2.785 1.639-5.189 4-6.315v-.685c0-1.654 1.346-3 3-3s3 1.346 3 3v.685c2.361 1.126 4 3.53 4 6.315v1.171c0 1.557.606 3.021 1.707 4.122.286.286.372.716.217 1.09z"/>
    <path d="m52 16c0-2.757-2.243-5-5-5s-5 2.243-5 5v1.171c0 1.363-.346 2.672-.996 3.829h11.992c-.65-1.156-.996-2.466-.996-3.829z"/>
    <path d="m47 24c.737 0 1.375-.405 1.722-1h-3.444c.347.595.985 1 1.722 1z"/>
</svg>