<svg version="1" xmlns="http://www.w3.org/2000/svg" width="933.333" height="933.333" viewBox="0 0 700.000000 700.000000"><path d="M435.5 279.3c-6.7 2.3-10.1 4.4-14.2 9.1-4.8 5.4-6.2 9.7-7 20.3l-.6 8.3H401v18h13v71h25v-71h17v-18h-17v-5.5c0-3 .5-6.5 1.1-7.9 1.7-3.7 7.1-5.8 13.4-5.4l5.4.3.3-9c.2-5 0-9.4-.4-9.9-1.2-1.5-18.9-1.7-23.3-.3zM569 303.6v23.6l-4.6-4.1c-9.1-8-24.7-10.1-35.6-4.8-13.6 6.6-20.8 21.6-20.8 43.2 0 27.2 11.9 44.5 31.9 46.2 10.8.9 23.7-4.1 28.6-10.9 1.4-2.1 1.5-2 1.5 3.5v5.7h10V280h-11v23.6zm-11.9 24.2c3.7 1.9 6.4 4.3 8.7 7.6l3.2 4.8v44.9l-4.6 4.9c-5.7 6.1-11.6 8.5-20.4 8.4-7-.1-12.7-2.3-16.7-6.6s-7.5-13.4-8.2-21.6c-1.4-17.4 1.8-32 8.6-38.9 4.9-4.8 8.6-6.2 16.9-6.3 5.9 0 8.1.5 12.5 2.8zM134.2 316.5c-7.6 2.1-11.1 4.1-16.5 9.4-3.4 3.2-5.2 6-6.2 9.5-.8 2.7-1.5 5.3-1.5 5.8 0 .4 2.4.8 5.4.8 5.2 0 5.4-.1 6-3.2.9-4.7 4.9-9.2 10.3-11.9 6.7-3.2 18.9-3.2 25-.1 6.7 3.5 9.4 8.5 10 18.5l.6 8.5-15.9.4c-20.8.6-27.3 2.6-35.5 10.8-4.5 4.5-5.8 6.5-6.9 10.9-3 12.4 2.1 23.1 14 29.2 3.8 2 6 2.3 14 2.3 11.3 0 18.4-2.3 25.2-8.3l4.3-3.9 1 5.2 1 5.1 5.8.3c6.1.3 6.4 0 4.5-4.5-.7-1.8-1.3-14.1-1.7-34.8-.6-30.4-.7-32.2-2.8-36.1-2.9-5.4-9.3-10.9-15.2-12.9-6.7-2.3-18.5-2.8-24.9-1zm32.8 55.3c0 9.4-.2 10.1-2.9 13.9-7 9.6-18.8 14.4-30.3 12.3-9.8-1.9-15.3-8.5-14.6-17.5.6-6.7 3.4-10.7 10.1-13.9 6.5-3.2 13.3-4.3 27-4.5l10.7-.1v9.8zM191 317.2c.1.2 6.8 20.1 14.9 44.3l14.8 44 11.9.3 11.9.2 14.8-43.7c8.1-24.1 14.7-44.2 14.7-44.6 0-.4-5.7-.6-12.6-.5l-12.7.3-7.8 28.4c-4.3 15.6-8 28.5-8.1 28.7-.2.1-3.9-12.7-8.3-28.7l-7.9-28.9h-12.8c-7 0-12.8.1-12.8.2zM287.5 357.2c5.6 22.2 10.8 42.2 11.4 44.5l1.2 4.3h20.5l7.9-26.5c4.3-14.6 8.1-26.5 8.4-26.5.3 0 4.2 11.9 8.5 26.5l7.9 26.5h20.6l1-3.8c5.4-20.5 21.1-82.8 21.1-83.8 0-1.1-2.5-1.4-11.4-1.4-10.1 0-11.5.2-12 1.7-.2 1-2.8 13.4-5.7 27.6l-5.3 25.9-6.8-23.9c-3.8-13.1-7.3-25.5-7.9-27.6l-1-3.7h-17.8l-1.4 4.7c-.8 2.7-4.3 14.8-7.8 27-3.4 12.3-6.5 22.1-6.7 21.9-.3-.4-11.2-52.1-11.2-53.3 0-.2-5.4-.3-11.9-.3h-11.9l10.3 40.2zM473 395c-2.8 2.8-2.7 8.4.2 10.4 5.1 3.6 11.8.8 11.8-5 0-4.3-2.9-7.4-7-7.4-1.7 0-3.9.9-5 2z"/></svg>