<svg height="512" viewBox="0 0 64 64" width="512" xmlns="http://www.w3.org/2000/svg"><path d="M31.139 19H4c-.551 0-1 .449-1 1v5h30.165a15.867 15.867 0 01-2.026-6zM7 23H5v-2h2zm4 0H9v-2h2zm4 0h-2v-2h2zM34.53 27H3v33c0 .552.449 1 1 1h44c.551 0 1-.448 1-1V32.861c-.657.083-1.321.139-2 .139-5.039 0-9.535-2.347-12.47-6zM5 38h2v2H5zm0 4h38v2H5zm0 4h2v2H5zm38 6H5v-2h38zm4 0h-2v-2h2zm0-4H9v-2h38zm0-4h-2v-2h2zm0-4H9v-2h38zM48 9.08V9c0-.551-.449-1-1-1s-1 .449-1 1v.08c.328-.047.66-.08 1-.08s.672.033 1 .08z"/><path d="M47 3c-7.72 0-14 6.28-14 14s6.28 14 14 14 14-6.28 14-14S54.72 3 47 3zm8.924 19.383c-.155.373-.52.617-.924.617h-4.142c-.447 1.72-2 3-3.858 3s-3.411-1.28-3.858-3H39a1.002 1.002 0 01-.707-1.707A5.79 5.79 0 0040 17.171V16c0-2.785 1.639-5.189 4-6.315V9c0-1.654 1.346-3 3-3s3 1.346 3 3v.685c2.361 1.126 4 3.53 4 6.315v1.171c0 1.557.606 3.021 1.707 4.122a1 1 0 01.217 1.09z"/><path d="M52 16c0-2.757-2.243-5-5-5s-5 2.243-5 5v1.171A7.79 7.79 0 0141.004 21h11.992A7.787 7.787 0 0152 17.171zM47 24c.737 0 1.375-.405 1.722-1h-3.444c.347.595.985 1 1.722 1z"/></svg>