<svg height="512" width="512" xmlns="http://www.w3.org/2000/svg"><path d="M181 31h90v60h-90zM301 31h90v60h-90zM497 31h-76v60h91V46c0-8.291-6.709-15-15-15zM361 316h-15a14.986 14.986 0 01-10.605-4.395L286 262.211l-49.395 49.395A14.99 14.99 0 01226 316h-75v30h210z"/><path d="M275.395 230.395c5.859-5.859 15.352-5.859 21.211 0L352.211 286H361v-90H151v90h68.789zM196 256c-8.284 0-15-6.716-15-15 0-8.286 6.716-15 15-15s15 6.714 15 15c0 8.284-6.716 15-15 15z"/><path d="M151 106V31H15C6.709 31 0 37.709 0 46v420c0 8.291 6.709 15 15 15h482c8.291 0 15-6.709 15-15V121H166c-8.291 0-15-6.709-15-15zm225 330H136c-8.291 0-15-6.709-15-15s6.709-15 15-15h240c8.291 0 15 6.709 15 15s-6.709 15-15 15zm15-255v180c0 8.291-6.709 15-15 15H136c-8.291 0-15-6.709-15-15V181c0-8.291 6.709-15 15-15h240c8.291 0 15 6.709 15 15z"/></svg>