<svg version="1.1" xmlns="http://www.w3.org/2000/svg" x="0" y="0" viewBox="0 0 511.936 511.936" xml:space="preserve"><path d="M383.968 0h-256C80.907 0 42.635 38.272 42.635 85.333v213.333c0 47.061 38.272 85.333 85.333 85.333h64l.085 92.075c0 14.571 8.683 27.584 22.165 33.173a35.04 35.04 0 0013.419 2.688c9.536 0 19.136-3.968 27.029-11.968L350.496 384h33.472c47.061 0 85.333-38.272 85.333-85.333V85.333C469.301 38.272 431.029 0 383.968 0zm-128 85.333c11.776 0 21.333 9.557 21.333 21.333S267.744 128 255.968 128s-21.333-9.557-21.333-21.333 9.557-21.334 21.333-21.334zm42.667 213.334h-85.333c-11.797 0-21.333-9.557-21.333-21.333S201.504 256 213.301 256h21.333v-64c-11.797 0-21.333-9.557-21.333-21.333s9.536-21.333 21.333-21.333h21.333c11.797 0 21.333 9.557 21.333 21.333V256h21.333c11.797 0 21.333 9.557 21.333 21.333s-9.534 21.334-21.331 21.334z"/></svg>