<svg width="100" height="100" viewBox="0 0 100 100" fill="none" xmlns="http://www.w3.org/2000/svg">
<rect width="100" height="100" rx="10" fill="white"/>
<path d="M37.6368 81C37.1036 79.4893 36.7629 77.2528 36.6148 74.2905C34.7486 76.7196 32.364 78.6006 29.461 79.9336C26.5876 81.237 23.5365 81.8887 20.3077 81.8887C15.6866 81.8887 11.9394 80.6001 9.06599 78.0229C6.22224 75.4458 4.80037 72.1873 4.80037 68.2476C4.80037 63.5672 6.74064 59.8644 10.6212 57.1392C14.5313 54.4139 19.967 53.0513 26.9283 53.0513H36.5704V47.5859C36.5704 44.1497 35.504 41.4541 33.3712 39.499C31.268 37.5143 28.1873 36.522 24.129 36.522C20.4262 36.522 17.3603 37.4699 14.9312 39.3657C12.5022 41.2616 11.2877 43.5425 11.2877 46.2085L5.95564 46.1641C5.95564 42.3428 7.73299 39.0399 11.2877 36.2554C14.8424 33.4412 19.2117 32.0342 24.3956 32.0342C29.7572 32.0342 33.9784 33.382 37.0592 36.0776C40.1695 38.7437 41.7691 42.4761 41.858 47.2749V70.0249C41.858 74.6756 42.3468 78.1562 43.3243 80.4668V81H37.6368ZM20.9298 77.1787C24.4845 77.1787 27.654 76.3197 30.4386 74.6016C33.2527 72.8835 35.2966 70.5877 36.5704 67.7144V57.1392H27.0616C21.7592 57.1984 17.6121 58.1759 14.6202 60.0718C11.6283 61.938 10.1324 64.5151 10.1324 67.8032C10.1324 70.4989 11.1248 72.7354 13.1095 74.5127C15.1238 76.29 17.7305 77.1787 20.9298 77.1787Z" fill="black"/>
<path d="M44.668 77.8008C44.668 76.764 44.9938 75.8901 45.6455 75.1792C46.3268 74.4386 47.2599 74.0684 48.4448 74.0684C49.6297 74.0684 50.5628 74.4386 51.2441 75.1792C51.9255 75.8901 52.2661 76.764 52.2661 77.8008C52.2661 78.8376 51.9255 79.6966 51.2441 80.3779C50.5628 81.0296 49.6297 81.3555 48.4448 81.3555C47.2599 81.3555 46.3268 81.0296 45.6455 80.3779C44.9938 79.6966 44.668 78.8376 44.668 77.8008ZM53.8764 56.5171C53.8764 49.0522 55.5352 43.113 58.8529 38.6992C62.2003 34.2559 66.7325 32.0342 72.4496 32.0342C78.9369 32.0342 83.8839 34.5965 87.2904 39.7212V12.75H92.578V81H87.6015L87.3793 74.6016C83.9727 79.4596 78.9666 81.8887 72.3608 81.8887C66.8214 81.8887 62.3484 79.667 58.9418 75.2236C55.5649 70.7507 53.8764 64.7225 53.8764 57.1392V56.5171ZM59.2528 57.4502C59.2528 63.582 60.4822 68.4253 62.9408 71.98C65.3995 75.505 68.8653 77.2676 73.3383 77.2676C79.8848 77.2676 84.5356 74.3794 87.2904 68.603V46.0308C84.5356 39.7804 79.9145 36.6553 73.4272 36.6553C68.9542 36.6553 65.4736 38.4178 62.9853 41.9429C60.497 45.4383 59.2528 50.6074 59.2528 57.4502Z" fill="#FF0000"/>
</svg>
