<svg width="100" height="100" viewBox="0 0 100 100" fill="none" xmlns="http://www.w3.org/2000/svg">
<rect width="100" height="100" rx="10" fill="white"/>
<path d="M38.7781 75C38.3563 73.8047 38.0867 72.0352 37.9695 69.6914C36.493 71.6133 34.6063 73.1016 32.3094 74.1562C30.0359 75.1875 27.6219 75.7031 25.0672 75.7031C21.4109 75.7031 18.4461 74.6836 16.1727 72.6445C13.9227 70.6055 12.7977 68.0273 12.7977 64.9102C12.7977 61.207 14.3328 58.2773 17.4031 56.1211C20.4969 53.9648 24.7977 52.8867 30.3055 52.8867H37.9344V48.5625C37.9344 45.8438 37.0906 43.7109 35.4031 42.1641C33.7391 40.5938 31.3016 39.8086 28.0906 39.8086C25.1609 39.8086 22.7352 40.5586 20.8133 42.0586C18.8914 43.5586 17.9305 45.3633 17.9305 47.4727L13.7117 47.4375C13.7117 44.4141 15.118 41.8008 17.9305 39.5977C20.743 37.3711 24.2 36.2578 28.3016 36.2578C32.5438 36.2578 35.8836 37.3242 38.3211 39.457C40.782 41.5664 42.0477 44.5195 42.118 48.3164V66.3164C42.118 69.9961 42.5047 72.75 43.2781 74.5781V75H38.7781ZM25.5594 71.9766C28.3719 71.9766 30.8797 71.2969 33.0828 69.9375C35.3094 68.5781 36.9266 66.7617 37.9344 64.4883V56.1211H30.4109C26.2156 56.168 22.9344 56.9414 20.5672 58.4414C18.2 59.918 17.0164 61.957 17.0164 64.5586C17.0164 66.6914 17.8016 68.4609 19.3719 69.8672C20.9656 71.2734 23.0281 71.9766 25.5594 71.9766Z" fill="black"/>
<path d="M45.7812 72.4688C45.7812 71.6484 46.0391 70.957 46.5547 70.3945C47.0938 69.8086 47.832 69.5156 48.7695 69.5156C49.707 69.5156 50.4453 69.8086 50.9844 70.3945C51.5234 70.957 51.793 71.6484 51.793 72.4688C51.793 73.2891 51.5234 73.9688 50.9844 74.5078C50.4453 75.0234 49.707 75.2812 48.7695 75.2812C47.832 75.2812 47.0938 75.0234 46.5547 74.5078C46.0391 73.9688 45.7812 73.2891 45.7812 72.4688ZM54.507 55.6289C54.507 49.7227 55.8195 45.0234 58.4445 41.5312C61.093 38.0156 64.6789 36.2578 69.2023 36.2578C74.3352 36.2578 78.2492 38.2852 80.9445 42.3398V21H85.1281V75H81.1906L81.0148 69.9375C78.3195 73.7812 74.3586 75.7031 69.132 75.7031C64.7492 75.7031 61.2102 73.9453 58.5148 70.4297C55.843 66.8906 54.507 62.1211 54.507 56.1211V55.6289ZM58.7609 56.3672C58.7609 61.2188 59.7336 65.0508 61.6789 67.8633C63.6242 70.6523 66.3664 72.0469 69.9055 72.0469C75.0852 72.0469 78.7648 69.7617 80.9445 65.1914V47.332C78.7648 42.3867 75.1086 39.9141 69.9758 39.9141C66.4367 39.9141 63.6828 41.3086 61.7141 44.0977C59.7453 46.8633 58.7609 50.9531 58.7609 56.3672Z" fill="#FF0000"/>
</svg>
