<svg width="100" height="100" viewBox="0 0 100 100" fill="none" xmlns="http://www.w3.org/2000/svg">
<rect width="100" height="100" rx="10" fill="white"/>
<path d="M24.1641 58C24.0234 57.6016 23.9336 57.0117 23.8945 56.2305C23.4023 56.8711 22.7734 57.3672 22.0078 57.7188C21.25 58.0625 20.4453 58.2344 19.5938 58.2344C18.375 58.2344 17.3867 57.8945 16.6289 57.2148C15.8789 56.5352 15.5039 55.6758 15.5039 54.6367C15.5039 53.4023 16.0156 52.4258 17.0391 51.707C18.0703 50.9883 19.5039 50.6289 21.3398 50.6289H23.8828V49.1875C23.8828 48.2812 23.6016 47.5703 23.0391 47.0547C22.4844 46.5312 21.6719 46.2695 20.6016 46.2695C19.625 46.2695 18.8164 46.5195 18.1758 47.0195C17.5352 47.5195 17.2148 48.1211 17.2148 48.8242L15.8086 48.8125C15.8086 47.8047 16.2773 46.9336 17.2148 46.1992C18.1523 45.457 19.3047 45.0859 20.6719 45.0859C22.0859 45.0859 23.1992 45.4414 24.0117 46.1523C24.832 46.8555 25.2539 47.8398 25.2773 49.1055V55.1055C25.2773 56.332 25.4062 57.25 25.6641 57.8594V58H24.1641ZM19.7578 56.9922C20.6953 56.9922 21.5312 56.7656 22.2656 56.3125C23.0078 55.8594 23.5469 55.2539 23.8828 54.4961V51.707H21.375C19.9766 51.7227 18.8828 51.9805 18.0938 52.4805C17.3047 52.9727 16.9102 53.6523 16.9102 54.5195C16.9102 55.2305 17.1719 55.8203 17.6953 56.2891C18.2266 56.7578 18.9141 56.9922 19.7578 56.9922ZM33.2461 53.8633L35.6016 45.3203H39.1406L34.8633 58H31.6289L27.3516 45.3203H30.8906L33.2461 53.8633ZM51.668 53.3945L53.332 45.3203H56.6016L53.3672 58H50.5312L48.1289 50.0195L45.7266 58H42.9023L39.668 45.3203H42.9375L44.5898 53.3828L46.9102 45.3203H49.3594L51.668 53.3945ZM59.2148 58V47.8047H57.3281V45.3203H59.2148V44.2422C59.2148 42.8203 59.6211 41.7188 60.4336 40.9375C61.2539 40.1484 62.3984 39.7539 63.8672 39.7539C64.3359 39.7539 64.9102 39.832 65.5898 39.9883L65.5547 42.6133C65.2734 42.543 64.9297 42.5078 64.5234 42.5078C63.25 42.5078 62.6133 43.1055 62.6133 44.3008V45.3203H65.1328V47.8047H62.6133V58H59.2148Z" fill="black"/>
<path d="M67.2891 57.1562C67.2891 56.8828 67.375 56.6523 67.5469 56.4648C67.7266 56.2695 67.9727 56.1719 68.2852 56.1719C68.5977 56.1719 68.8438 56.2695 69.0234 56.4648C69.2031 56.6523 69.293 56.8828 69.293 57.1562C69.293 57.4297 69.2031 57.6562 69.0234 57.8359C68.8438 58.0078 68.5977 58.0938 68.2852 58.0938C67.9727 58.0938 67.7266 58.0078 67.5469 57.8359C67.375 57.6562 67.2891 57.4297 67.2891 57.1562ZM72.5977 51.543C72.5977 49.5742 73.0352 48.0078 73.9102 46.8438C74.793 45.6719 75.9883 45.0859 77.4961 45.0859C79.207 45.0859 80.5117 45.7617 81.4102 47.1133V40H82.8047V58H81.4922L81.4336 56.3125C80.5352 57.5938 79.2148 58.2344 77.4727 58.2344C76.0117 58.2344 74.832 57.6484 73.9336 56.4766C73.043 55.2969 72.5977 53.707 72.5977 51.707V51.543ZM74.0156 51.7891C74.0156 53.4062 74.3398 54.6836 74.9883 55.6211C75.6367 56.5508 76.5508 57.0156 77.7305 57.0156C79.457 57.0156 80.6836 56.2539 81.4102 54.7305V48.7773C80.6836 47.1289 79.4648 46.3047 77.7539 46.3047C76.5742 46.3047 75.6562 46.7695 75 47.6992C74.3438 48.6211 74.0156 49.9844 74.0156 51.7891Z" fill="#FF0000"/>
</svg>
