<svg width="100" height="100" viewBox="0 0 100 100" fill="none" xmlns="http://www.w3.org/2000/svg">
<rect width="100" height="100" rx="10" fill="white"/>
<path d="M26.0781 66C25.7969 65.2031 25.6172 64.0234 25.5391 62.4609C24.5547 63.7422 23.2969 64.7344 21.7656 65.4375C20.25 66.125 18.6406 66.4688 16.9375 66.4688C14.5 66.4688 12.5234 65.7891 11.0078 64.4297C9.50781 63.0703 8.75781 61.3516 8.75781 59.2734C8.75781 56.8047 9.78125 54.8516 11.8281 53.4141C13.8906 51.9766 16.7578 51.2578 20.4297 51.2578H25.5156V48.375C25.5156 46.5625 24.9531 45.1406 23.8281 44.1094C22.7188 43.0625 21.0938 42.5391 18.9531 42.5391C17 42.5391 15.3828 43.0391 14.1016 44.0391C12.8203 45.0391 12.1797 46.2422 12.1797 47.6484L9.36719 47.625C9.36719 45.6094 10.3047 43.8672 12.1797 42.3984C14.0547 40.9141 16.3594 40.1719 19.0938 40.1719C21.9219 40.1719 24.1484 40.8828 25.7734 42.3047C27.4141 43.7109 28.2578 45.6797 28.3047 48.2109V60.2109C28.3047 62.6641 28.5625 64.5 29.0781 65.7188V66H26.0781ZM17.2656 63.9844C19.1406 63.9844 20.8125 63.5312 22.2812 62.625C23.7656 61.7188 24.8438 60.5078 25.5156 58.9922V53.4141H20.5C17.7031 53.4453 15.5156 53.9609 13.9375 54.9609C12.3594 55.9453 11.5703 57.3047 11.5703 59.0391C11.5703 60.4609 12.0938 61.6406 13.1406 62.5781C14.2031 63.5156 15.5781 63.9844 17.2656 63.9844ZM44.2422 57.7266L48.9531 40.6406H56.0312L47.4766 66H41.0078L32.4531 40.6406H39.5312L44.2422 57.7266Z" fill="black"/>
<path d="M59.8281 64.3125C59.8281 63.7656 60 63.3047 60.3438 62.9297C60.7031 62.5391 61.1953 62.3438 61.8203 62.3438C62.4453 62.3438 62.9375 62.5391 63.2969 62.9297C63.6562 63.3047 63.8359 63.7656 63.8359 64.3125C63.8359 64.8594 63.6562 65.3125 63.2969 65.6719C62.9375 66.0156 62.4453 66.1875 61.8203 66.1875C61.1953 66.1875 60.7031 66.0156 60.3438 65.6719C60 65.3125 59.8281 64.8594 59.8281 64.3125ZM70.4453 53.0859C70.4453 49.1484 71.3203 46.0156 73.0703 43.6875C74.8359 41.3438 77.2266 40.1719 80.2422 40.1719C83.6641 40.1719 86.2734 41.5234 88.0703 44.2266V30H90.8594V66H88.2344L88.1172 62.625C86.3203 65.1875 83.6797 66.4688 80.1953 66.4688C77.2734 66.4688 74.9141 65.2969 73.1172 62.9531C71.3359 60.5938 70.4453 57.4141 70.4453 53.4141V53.0859ZM73.2812 53.5781C73.2812 56.8125 73.9297 59.3672 75.2266 61.2422C76.5234 63.1016 78.3516 64.0312 80.7109 64.0312C84.1641 64.0312 86.6172 62.5078 88.0703 59.4609V47.5547C86.6172 44.2578 84.1797 42.6094 80.7578 42.6094C78.3984 42.6094 76.5625 43.5391 75.25 45.3984C73.9375 47.2422 73.2812 49.9688 73.2812 53.5781Z" fill="#FF0000"/>
</svg>
