<svg width="100" height="100" viewBox="0 0 100 100" fill="none" xmlns="http://www.w3.org/2000/svg">
<rect width="100" height="100" rx="10" fill="white"/>
<circle cx="82.5" cy="63.5" r="7.5" fill="#FF0000"/>
<path d="M36.375 71C36 69.9375 35.7604 68.3646 35.6562 66.2812C34.3438 67.9896 32.6667 69.3125 30.625 70.25C28.6042 71.1667 26.4583 71.625 24.1875 71.625C20.9375 71.625 18.3021 70.7188 16.2812 68.9062C14.2812 67.0938 13.2812 64.8021 13.2812 62.0312C13.2812 58.7396 14.6458 56.1354 17.375 54.2188C20.125 52.3021 23.9479 51.3438 28.8438 51.3438H35.625V47.5C35.625 45.0833 34.875 43.1875 33.375 41.8125C31.8958 40.4167 29.7292 39.7188 26.875 39.7188C24.2708 39.7188 22.1146 40.3854 20.4062 41.7188C18.6979 43.0521 17.8438 44.6562 17.8438 46.5312L14.0938 46.5C14.0938 43.8125 15.3438 41.4896 17.8438 39.5312C20.3438 37.5521 23.4167 36.5625 27.0625 36.5625C30.8333 36.5625 33.8021 37.5104 35.9688 39.4062C38.1562 41.2812 39.2812 43.9062 39.3438 47.2812V63.2812C39.3438 66.5521 39.6875 69 40.375 70.625V71H36.375ZM24.625 68.3125C27.125 68.3125 29.3542 67.7083 31.3125 66.5C33.2917 65.2917 34.7292 63.6771 35.625 61.6562V54.2188H28.9375C25.2083 54.2604 22.2917 54.9479 20.1875 56.2812C18.0833 57.5938 17.0312 59.4062 17.0312 61.7188C17.0312 63.6146 17.7292 65.1875 19.125 66.4375C20.5417 67.6875 22.375 68.3125 24.625 68.3125ZM60.5938 59.9688L66.875 37.1875H76.3125L64.9062 71H56.2812L44.875 37.1875H54.3125L60.5938 59.9688Z" fill="black"/>
</svg>
