<svg width="100" height="100" viewBox="0 0 100 100" fill="none" xmlns="http://www.w3.org/2000/svg">
<rect width="100" height="100" rx="10" fill="white"/>
<path d="M41.9844 71C41.5625 69.8047 41.293 68.0352 41.1758 65.6914C39.6992 67.6133 37.8125 69.1016 35.5156 70.1562C33.2422 71.1875 30.8281 71.7031 28.2734 71.7031C24.6172 71.7031 21.6523 70.6836 19.3789 68.6445C17.1289 66.6055 16.0039 64.0273 16.0039 60.9102C16.0039 57.207 17.5391 54.2773 20.6094 52.1211C23.7031 49.9648 28.0039 48.8867 33.5117 48.8867H41.1406V44.5625C41.1406 41.8438 40.2969 39.7109 38.6094 38.1641C36.9453 36.5938 34.5078 35.8086 31.2969 35.8086C28.3672 35.8086 25.9414 36.5586 24.0195 38.0586C22.0977 39.5586 21.1367 41.3633 21.1367 43.4727L16.918 43.4375C16.918 40.4141 18.3242 37.8008 21.1367 35.5977C23.9492 33.3711 27.4062 32.2578 31.5078 32.2578C35.75 32.2578 39.0898 33.3242 41.5273 35.457C43.9883 37.5664 45.2539 40.5195 45.3242 44.3164V62.3164C45.3242 65.9961 45.7109 68.75 46.4844 70.5781V71H41.9844ZM28.7656 67.9766C31.5781 67.9766 34.0859 67.2969 36.2891 65.9375C38.5156 64.5781 40.1328 62.7617 41.1406 60.4883V52.1211H33.6172C29.4219 52.168 26.1406 52.9414 23.7734 54.4414C21.4062 55.918 20.2227 57.957 20.2227 60.5586C20.2227 62.6914 21.0078 64.4609 22.5781 65.8672C24.1719 67.2734 26.2344 67.9766 28.7656 67.9766ZM69.2305 58.5898L76.2969 32.9609H86.9141L74.082 71H64.3789L51.5469 32.9609H62.1641L69.2305 58.5898Z" fill="black"/>
</svg>
