<svg width="500" height="500" viewBox="0 0 500 500" fill="none" xmlns="http://www.w3.org/2000/svg">
<path d="M4.57764e-05 0H500V500H4.57764e-05V0Z" fill="#5359B1"/>
<g opacity="0.8">
<mask id="mask0" mask-type="alpha" maskUnits="userSpaceOnUse" x="0" y="0" width="500" height="500">
<path d="M19.7494 40.3109L9.96884 33.0542L12.8485 29.173C13.9545 27.6823 16.1236 27.3713 17.6965 28.515C19.2852 29.6703 19.6671 31.8506 18.5526 33.3527L18.1058 33.955C17.7343 34.4557 17.8574 35.1716 18.3819 35.5607L19.6439 36.4971C20.1684 36.8862 20.8893 36.7965 21.2608 36.2958L21.7077 35.6935C24.0538 32.5313 23.26 27.9558 19.9389 25.5092C16.6177 23.0626 12.0229 23.6926 9.67672 26.8547L6.81383 30.7133L5.86733 30.0111C4.82223 29.2357 3.37382 29.4159 2.63365 30.4135L5.24521e-05 34V40.5L12.5991 49.948C13.6442 50.7234 15.0926 50.5431 15.8328 49.5455L20.3017 43.5223C21.0419 42.5247 20.7945 41.0863 19.7494 40.3109ZM10.1404 42.0534C9.52313 42.8854 8.31723 43.0355 7.44566 42.3888C6.57409 41.7421 6.36812 40.5445 6.98538 39.7126L8.32606 37.9056C8.94332 37.0737 10.1492 36.9236 11.0208 37.5703C11.8924 38.2169 12.0983 39.4145 11.4811 40.2465L10.1404 42.0534Z" fill="black"/>
<path d="M89.6185 92.1501L79.8379 84.8935L82.7176 81.0123C83.8236 79.5215 85.9927 79.2106 87.5656 80.3542C89.1543 81.5096 89.5362 83.6899 88.4217 85.1919L87.9748 85.7943C87.6034 86.2949 87.7265 87.0108 88.251 87.4L89.513 88.3363C90.0375 88.7255 90.7584 88.6358 91.1298 88.1351L91.5767 87.5328C93.9229 84.3706 93.1291 79.7951 89.808 77.3485C86.4868 74.9019 81.892 75.5318 79.5458 78.694L76.6829 82.5526L75.7364 81.8504C74.6913 81.0749 73.2429 81.2552 72.5027 82.2528L68.0338 88.276C67.2937 89.2736 67.5411 90.7121 68.5862 91.4875L82.4682 101.787C83.5133 102.563 84.9617 102.382 85.7019 101.385L90.1708 95.3616C90.9109 94.364 90.6636 92.9255 89.6185 92.1501ZM80.0095 93.8927C79.3922 94.7247 78.1863 94.8747 77.3148 94.2281C76.4432 93.5814 76.2372 92.3838 76.8545 91.5518L78.1951 89.7449C78.8124 88.9129 80.0183 88.7629 80.8899 89.4095C81.7614 90.0562 81.9674 91.2538 81.3502 92.0857L80.0095 93.8927Z" fill="black"/>
<path d="M139.074 25.4934L129.294 18.2368L132.173 14.3556C133.279 12.8648 135.449 12.5539 137.021 13.6975C138.61 14.8529 138.992 17.0332 137.878 18.5352L137.431 19.1375C137.059 19.6382 137.182 20.3541 137.707 20.7433L138.969 21.6796C139.493 22.0688 140.214 21.9791 140.586 21.4784L141.033 20.8761C143.379 17.7139 142.585 13.1384 139.264 10.6918C135.943 8.24518 131.348 8.87511 129.002 12.0373L126.139 15.8959L125.192 15.1936C124.147 14.4182 122.699 14.5985 121.959 15.5961L117.49 21.6193C116.75 22.6169 116.997 24.0554 118.042 24.8308L131.924 35.1305C132.969 35.9059 134.418 35.7257 135.158 34.7281L139.627 28.7049C140.367 27.7073 140.119 26.2688 139.074 25.4934ZM129.465 27.236C128.848 28.0679 127.642 28.218 126.771 27.5714C125.899 26.9247 125.693 25.7271 126.31 24.8951L127.651 23.0882C128.268 22.2562 129.474 22.1061 130.346 22.7528C131.217 23.3995 131.423 24.5971 130.806 25.429L129.465 27.236Z" fill="black"/>
<path d="M159.487 143.989L149.707 136.733L152.587 132.852C153.693 131.361 155.862 131.05 157.435 132.194C159.023 133.349 159.405 135.529 158.291 137.031L157.844 137.634C157.472 138.134 157.596 138.85 158.12 139.239L159.382 140.176C159.907 140.565 160.627 140.475 160.999 139.974L161.446 139.372C163.792 136.21 162.998 131.634 159.677 129.188C156.356 126.741 151.761 127.371 149.415 130.533L146.552 134.392L145.605 133.69C144.56 132.914 143.112 133.095 142.372 134.092L137.903 140.115C137.163 141.113 137.41 142.551 138.455 143.327L152.337 153.627C153.382 154.402 154.831 154.222 155.571 153.224L160.04 147.201C160.78 146.203 160.533 144.765 159.487 143.989ZM149.878 145.732C149.261 146.564 148.055 146.714 147.184 146.067C146.312 145.421 146.106 144.223 146.723 143.391L148.064 141.584C148.681 140.752 149.887 140.602 150.759 141.249C151.63 141.895 151.836 143.093 151.219 143.925L149.878 145.732Z" fill="black"/>
<path d="M229.357 195.829L219.576 188.572L222.456 184.691C223.562 183.2 225.731 182.889 227.304 184.033C228.892 185.188 229.274 187.368 228.16 188.87L227.713 189.473C227.341 189.974 227.465 190.689 227.989 191.079L229.251 192.015C229.776 192.404 230.496 192.314 230.868 191.814L231.315 191.211C233.661 188.049 232.867 183.474 229.546 181.027C226.225 178.58 221.63 179.21 219.284 182.373L216.421 186.231L215.475 185.529C214.429 184.754 212.981 184.934 212.241 185.931L207.772 191.955C207.032 192.952 207.279 194.391 208.324 195.166L222.206 205.466C223.251 206.241 224.7 206.061 225.44 205.063L229.909 199.04C230.649 198.043 230.402 196.604 229.357 195.829ZM219.748 197.571C219.13 198.403 217.924 198.553 217.053 197.907C216.181 197.26 215.975 196.062 216.593 195.23L217.933 193.423C218.55 192.592 219.756 192.441 220.628 193.088C221.5 193.735 221.706 194.932 221.088 195.764L219.748 197.571Z" fill="black"/>
<path d="M208.943 77.3327L199.163 70.076L202.042 66.1948C203.149 64.7041 205.318 64.3931 206.891 65.5368C208.479 66.6922 208.861 68.8725 207.747 70.3745L207.3 70.9768C206.928 71.4775 207.051 72.1934 207.576 72.5825L208.838 73.5189C209.362 73.908 210.083 73.8183 210.455 73.3177L210.902 72.7153C213.248 69.5532 212.454 64.9777 209.133 62.5311C205.812 60.0844 201.217 60.7144 198.871 63.8766L196.008 67.7352L195.061 67.0329C194.016 66.2575 192.568 66.4378 191.828 67.4354L187.359 73.4586C186.619 74.4561 186.866 75.8946 187.911 76.67L201.793 86.9698C202.838 87.7452 204.287 87.5649 205.027 86.5673L209.496 80.5441C210.236 79.5466 209.988 78.1081 208.943 77.3327ZM199.334 79.0753C198.717 79.9072 197.511 80.0573 196.64 79.4106C195.768 78.764 195.562 77.5664 196.179 76.7344L197.52 74.9274C198.137 74.0955 199.343 73.9454 200.215 74.5921C201.086 75.2387 201.292 76.4363 200.675 77.2683L199.334 79.0753Z" fill="black"/>
<path d="M278.813 129.172L269.032 121.915L271.912 118.034C273.018 116.543 275.187 116.232 276.76 117.376C278.348 118.531 278.73 120.712 277.616 122.214L277.169 122.816C276.797 123.317 276.921 124.033 277.445 124.422L278.707 125.358C279.232 125.747 279.952 125.658 280.324 125.157L280.771 124.555C283.117 121.392 282.323 116.817 279.002 114.37C275.681 111.924 271.086 112.554 268.74 115.716L265.877 119.574L264.931 118.872C263.885 118.097 262.437 118.277 261.697 119.275L257.228 125.298C256.488 126.295 256.735 127.734 257.78 128.509L271.662 138.809C272.707 139.585 274.156 139.404 274.896 138.407L279.365 132.383C280.105 131.386 279.858 129.947 278.813 129.172ZM269.204 130.915C268.586 131.747 267.38 131.897 266.509 131.25C265.637 130.603 265.431 129.406 266.049 128.574L267.389 126.767C268.007 125.935 269.212 125.785 270.084 126.431C270.956 127.078 271.162 128.276 270.544 129.108L269.204 130.915Z" fill="black"/>
<path d="M258.399 10.676L248.619 3.41933L251.156 4.52995e-05H257.36C258.032 1.15789 258.018 2.61924 257.203 3.71779L256.756 4.32011C256.384 4.82079 256.507 5.53668 257.032 5.92584L258.294 6.86219C258.818 7.25135 259.539 7.16164 259.911 6.66096L260.358 6.05864C261.68 4.27664 262.005 2.04579 261.442 4.52995e-05H246.264L245.464 1.07847L244.517 0.376217C244.286 0.204412 244.034 0.0795235 243.775 4.52995e-05H242.383C241.954 0.134613 241.567 0.39674 241.283 0.778664L236.815 6.80186C236.074 7.79945 236.322 9.23793 237.367 10.0133L251.249 20.3131C252.294 21.0885 253.743 20.9082 254.483 19.9106L258.952 13.8874C259.692 12.8899 259.444 11.4514 258.399 10.676ZM248.79 12.4186C248.173 13.2505 246.967 13.4006 246.096 12.7539C245.224 12.1073 245.018 10.9097 245.635 10.0777L246.976 8.27075C247.593 7.43879 248.799 7.28872 249.671 7.93538C250.542 8.58204 250.748 9.77965 250.131 10.6116L248.79 12.4186Z" fill="black"/>
<path d="M328.268 62.5153L318.488 55.2586L321.368 51.3774C322.474 49.8867 324.643 49.5757 326.216 50.7194C327.804 51.8747 328.186 54.055 327.072 55.5571L326.625 56.1594C326.253 56.6601 326.376 57.376 326.901 57.7651L328.163 58.7015C328.687 59.0906 329.408 59.0009 329.78 58.5002L330.227 57.8979C332.573 54.7357 331.779 50.1602 328.458 47.7136C325.137 45.267 320.542 45.897 318.196 49.0591L315.333 52.9178L314.386 52.2155C313.341 51.4401 311.893 51.6204 311.153 52.6179L306.684 58.6411C305.944 59.6387 306.191 61.0772 307.236 61.8526L321.118 72.1524C322.163 72.9278 323.612 72.7475 324.352 71.7499L328.821 65.7267C329.561 64.7291 329.313 63.2907 328.268 62.5153ZM318.659 64.2579C318.042 65.0898 316.836 65.2399 315.965 64.5932C315.093 63.9466 314.887 62.7489 315.504 61.917L316.845 60.11C317.462 59.2781 318.668 59.128 319.54 59.7747C320.411 60.4213 320.617 61.6189 320 62.4509L318.659 64.2579Z" fill="black"/>
<path d="M363.167 0L370.574 5.49566C371.619 6.27107 373.068 6.09081 373.808 5.09322L377.587 0H363.167Z" fill="black"/>
<path d="M299.226 247.668L289.445 240.411L292.325 236.53C293.431 235.039 295.6 234.728 297.173 235.872C298.762 237.027 299.144 239.208 298.029 240.71L297.582 241.312C297.211 241.813 297.334 242.529 297.858 242.918L299.12 243.854C299.645 244.243 300.366 244.154 300.737 243.653L301.184 243.051C303.53 239.888 302.736 235.313 299.415 232.866C296.094 230.42 291.499 231.05 289.153 234.212L286.29 238.07L285.344 237.368C284.299 236.593 282.85 236.773 282.11 237.771L277.641 243.794C276.901 244.791 277.148 246.23 278.193 247.005L292.076 257.305C293.121 258.08 294.569 257.9 295.309 256.903L299.778 250.879C300.518 249.882 300.271 248.443 299.226 247.668ZM289.617 249.411C289 250.243 287.794 250.393 286.922 249.746C286.051 249.099 285.845 247.902 286.462 247.07L287.802 245.263C288.42 244.431 289.626 244.281 290.497 244.927C291.369 245.574 291.575 246.772 290.957 247.604L289.617 249.411Z" fill="black"/>
<path d="M369.095 299.507L359.314 292.251L362.194 288.369C363.3 286.879 365.469 286.568 367.042 287.711C368.631 288.867 369.013 291.047 367.898 292.549L367.451 293.151C367.08 293.652 367.203 294.368 367.727 294.757L368.989 295.693C369.514 296.083 370.235 295.993 370.606 295.492L371.053 294.89C373.399 291.728 372.606 287.152 369.284 284.706C365.963 282.259 361.368 282.889 359.022 286.051L356.159 289.91L355.213 289.207C354.168 288.432 352.719 288.612 351.979 289.61L347.51 295.633C346.77 296.631 347.017 298.069 348.063 298.845L361.945 309.144C362.99 309.92 364.438 309.739 365.178 308.742L369.647 302.719C370.387 301.721 370.14 300.283 369.095 299.507ZM359.486 301.25C358.869 302.082 357.663 302.232 356.791 301.585C355.92 300.938 355.714 299.741 356.331 298.909L357.672 297.102C358.289 296.27 359.495 296.12 360.366 296.767C361.238 297.413 361.444 298.611 360.827 299.443L359.486 301.25Z" fill="black"/>
<path d="M348.682 181.011L338.901 173.755L341.781 169.873C342.887 168.383 345.056 168.072 346.629 169.215C348.218 170.371 348.599 172.551 347.485 174.053L347.038 174.655C346.667 175.156 346.79 175.872 347.314 176.261L348.576 177.197C349.101 177.587 349.822 177.497 350.193 176.996L350.64 176.394C352.986 173.232 352.192 168.656 348.871 166.21C345.55 163.763 340.955 164.393 338.609 167.555L335.746 171.414L334.8 170.712C333.755 169.936 332.306 170.116 331.566 171.114L327.097 177.137C326.357 178.135 326.604 179.573 327.649 180.349L341.531 190.648C342.577 191.424 344.025 191.244 344.765 190.246L349.234 184.223C349.974 183.225 349.727 181.787 348.682 181.011ZM339.073 182.754C338.455 183.586 337.25 183.736 336.378 183.089C335.506 182.443 335.3 181.245 335.918 180.413L337.258 178.606C337.876 177.774 339.082 177.624 339.953 178.271C340.825 178.917 341.031 180.115 340.413 180.947L339.073 182.754Z" fill="black"/>
<path d="M418.551 232.851L408.77 225.594L411.65 221.713C412.756 220.222 414.925 219.911 416.498 221.055C418.087 222.21 418.468 224.39 417.354 225.892L416.907 226.495C416.536 226.995 416.659 227.711 417.183 228.1L418.445 229.037C418.97 229.426 419.691 229.336 420.062 228.836L420.509 228.233C422.855 225.071 422.061 220.496 418.74 218.049C415.419 215.602 410.824 216.232 408.478 219.394L405.615 223.253L404.669 222.551C403.624 221.775 402.175 221.956 401.435 222.953L396.966 228.976C396.226 229.974 396.473 231.412 397.518 232.188L411.4 242.488C412.446 243.263 413.894 243.083 414.634 242.085L419.103 236.062C419.843 235.064 419.596 233.626 418.551 232.851ZM408.942 234.593C408.324 235.425 407.119 235.575 406.247 234.928C405.375 234.282 405.169 233.084 405.787 232.252L407.127 230.445C407.745 229.613 408.951 229.463 409.822 230.11C410.694 230.757 410.9 231.954 410.282 232.786L408.942 234.593Z" fill="black"/>
<path d="M398.138 114.355L388.357 107.098L391.237 103.217C392.343 101.726 394.512 101.415 396.085 102.559C397.673 103.714 398.055 105.894 396.941 107.396L396.494 107.999C396.122 108.499 396.246 109.215 396.77 109.604L398.032 110.541C398.557 110.93 399.277 110.84 399.649 110.34L400.096 109.737C402.442 106.575 401.648 102 398.327 99.5529C395.006 97.1063 390.411 97.7363 388.065 100.898L385.202 104.757L384.255 104.055C383.21 103.279 381.762 103.46 381.022 104.457L376.553 110.48C375.813 111.478 376.06 112.917 377.105 113.692L390.987 123.992C392.032 124.767 393.481 124.587 394.221 123.589L398.69 117.566C399.43 116.568 399.183 115.13 398.138 114.355ZM388.529 116.097C387.911 116.929 386.705 117.079 385.834 116.433C384.962 115.786 384.756 114.588 385.374 113.756L386.714 111.949C387.331 111.117 388.537 110.967 389.409 111.614C390.281 112.261 390.486 113.458 389.869 114.29L388.529 116.097Z" fill="black"/>
<path d="M468.007 166.194L458.226 158.937L461.106 155.056C462.212 153.565 464.381 153.254 465.954 154.398C467.542 155.553 467.924 157.734 466.81 159.236L466.363 159.838C465.992 160.339 466.115 161.055 466.639 161.444L467.901 162.38C468.426 162.769 469.147 162.679 469.518 162.179L469.965 161.576C472.311 158.414 471.517 153.839 468.196 151.392C464.875 148.946 460.28 149.576 457.934 152.738L455.071 156.596L454.125 155.894C453.079 155.119 451.631 155.299 450.891 156.297L446.422 162.32C445.682 163.317 445.929 164.756 446.974 165.531L460.856 175.831C461.901 176.606 463.35 176.426 464.09 175.428L468.559 169.405C469.299 168.408 469.052 166.969 468.007 166.194ZM458.398 167.936C457.78 168.768 456.574 168.918 455.703 168.272C454.831 167.625 454.625 166.428 455.243 165.596L456.583 163.789C457.201 162.957 458.406 162.807 459.278 163.453C460.15 164.1 460.356 165.298 459.738 166.129L458.398 167.936Z" fill="black"/>
<path d="M447.593 47.6978L437.813 40.4412L440.692 36.56C441.799 35.0692 443.968 34.7583 445.541 35.9019C447.129 37.0573 447.511 39.2376 446.397 40.7396L445.95 41.3419C445.578 41.8426 445.701 42.5585 446.226 42.9477L447.488 43.884C448.012 44.2732 448.733 44.1835 449.105 43.6828L449.552 43.0805C451.898 39.9183 451.104 35.3428 447.783 32.8962C444.462 30.4496 439.867 31.0795 437.521 34.2417L434.658 38.1003L433.711 37.3981C432.666 36.6226 431.218 36.8029 430.478 37.8005L426.009 43.8237C425.269 44.8213 425.516 46.2598 426.561 47.0352L440.443 57.3349C441.488 58.1103 442.937 57.9301 443.677 56.9325L448.146 50.9093C448.886 49.9117 448.638 48.4732 447.593 47.6978ZM437.984 49.4404C437.367 50.2724 436.161 50.4224 435.29 49.7758C434.418 49.1291 434.212 47.9315 434.829 47.0995L436.17 45.2926C436.787 44.4606 437.993 44.3105 438.865 44.9572C439.736 45.6039 439.942 46.8015 439.325 47.6334L437.984 49.4404Z" fill="black"/>
<path d="M500 89.9396L495.878 95.663C495.138 96.6606 495.385 98.0991 496.43 98.8745L500 101.615V89.9396Z" fill="black"/>
<path d="M438.964 351.346L429.183 344.09L432.063 340.209C433.169 338.718 435.338 338.407 436.911 339.551C438.5 340.706 438.882 342.886 437.767 344.388L437.32 344.991C436.949 345.491 437.072 346.207 437.596 346.596L438.859 347.533C439.383 347.922 440.104 347.832 440.475 347.331L440.922 346.729C443.268 343.567 442.475 338.991 439.153 336.545C435.832 334.098 431.237 334.728 428.891 337.89L426.028 341.749L425.082 341.047C424.037 340.271 422.588 340.452 421.848 341.449L417.379 347.472C416.639 348.47 416.887 349.908 417.932 350.684L431.814 360.984C432.859 361.759 434.307 361.579 435.047 360.581L439.516 354.558C440.256 353.56 440.009 352.122 438.964 351.346ZM429.355 353.089C428.738 353.921 427.532 354.071 426.66 353.424C425.789 352.778 425.583 351.58 426.2 350.748L427.541 348.941C428.158 348.109 429.364 347.959 430.235 348.606C431.107 349.253 431.313 350.45 430.696 351.282L429.355 353.089Z" fill="black"/>
<path d="M500 396.5L499.052 395.929L500 394.5V388.396C499.512 388.775 499.144 389.213 498.76 389.73L495.897 393.588L494.951 392.886C493.906 392.111 492.457 392.291 491.717 393.288L487.248 399.312C486.508 400.309 486.756 401.748 487.801 402.523L500 411.53V396.5ZM499.224 404.928C498.607 405.76 497.401 405.91 496.529 405.264C495.658 404.617 495.452 403.419 496.069 402.588L497.41 400.781C498.027 399.949 499.128 399.726 500 400.372V404L499.224 404.928Z" fill="black"/>
<path d="M488.42 284.69L478.639 277.433L481.519 273.552C482.625 272.061 484.794 271.75 486.367 272.894C487.956 274.049 488.338 276.23 487.223 277.732L486.776 278.334C486.405 278.835 486.528 279.551 487.052 279.94L488.314 280.876C488.839 281.265 489.56 281.175 489.931 280.675L490.378 280.072C492.724 276.91 491.93 272.335 488.609 269.888C485.288 267.442 480.693 268.072 478.347 271.234L475.484 275.092L474.538 274.39C473.493 273.615 472.044 273.795 471.304 274.793L466.835 280.816C466.095 281.813 466.342 283.252 467.388 284.027L481.27 294.327C482.315 295.102 483.763 294.922 484.503 293.924L488.972 287.901C489.712 286.904 489.465 285.465 488.42 284.69ZM478.811 286.432C478.194 287.264 476.988 287.414 476.116 286.768C475.245 286.121 475.039 284.924 475.656 284.092L476.997 282.285C477.614 281.453 478.82 281.303 479.691 281.949C480.563 282.596 480.769 283.793 480.152 284.625L478.811 286.432Z" fill="black"/>
<path d="M40.1626 158.807L30.382 151.55L33.2617 147.669C34.3677 146.178 36.5368 145.867 38.1097 147.011C39.6984 148.166 40.0803 150.347 38.9658 151.849L38.519 152.451C38.1475 152.952 38.2706 153.668 38.7951 154.057L40.0571 154.993C40.5816 155.382 41.3025 155.293 41.674 154.792L42.1208 154.189C44.467 151.027 43.6732 146.452 40.3521 144.005C37.0309 141.559 32.4361 142.189 30.0899 145.351L27.227 149.209L26.2805 148.507C25.2354 147.732 23.787 147.912 23.0469 148.91L18.578 154.933C17.8378 155.93 18.0852 157.369 19.1303 158.144L33.0123 168.444C34.0574 169.219 35.5058 169.039 36.246 168.042L40.7149 162.018C41.4551 161.021 41.2077 159.582 40.1626 158.807ZM30.5536 160.549C29.9363 161.381 28.7304 161.531 27.8589 160.885C26.9873 160.238 26.7813 159.041 27.3986 158.209L28.7393 156.402C29.3565 155.57 30.5624 155.42 31.434 156.066C32.3056 156.713 32.5115 157.911 31.8943 158.742L30.5536 160.549Z" fill="black"/>
<path d="M31.5331 462.456L21.7526 455.199L24.6323 451.318C25.7383 449.827 27.9074 449.516 29.4803 450.66C31.069 451.815 31.4509 453.995 30.3364 455.497L29.8895 456.1C29.5181 456.6 29.6412 457.316 30.1657 457.705L31.4277 458.642C31.9522 459.031 32.6731 458.941 33.0445 458.44L33.4914 457.838C35.8376 454.676 35.0438 450.1 31.7226 447.654C28.4015 445.207 23.8067 445.837 21.4605 448.999L18.5976 452.858L17.6511 452.156C16.606 451.38 15.1576 451.561 14.4174 452.558L9.94853 458.581C9.20837 459.579 9.45577 461.017 10.5009 461.793L24.3829 472.093C25.428 472.868 26.8764 472.688 27.6166 471.69L32.0855 465.667C32.8256 464.669 32.5782 463.231 31.5331 462.456ZM21.9242 464.198C21.3069 465.03 20.101 465.18 19.2294 464.533C18.3579 463.887 18.1519 462.689 18.7692 461.857L20.1098 460.05C20.7271 459.218 21.933 459.068 22.8046 459.715C23.6761 460.362 23.8821 461.559 23.2648 462.391L21.9242 464.198Z" fill="black"/>
<path d="M11.1199 343.96L1.33941 336.703L4.21906 332.822C5.32512 331.331 7.49421 331.02 9.06711 332.164C10.6558 333.319 11.0376 335.499 9.92322 337.001L9.47633 337.604C9.10485 338.104 9.22797 338.82 9.75249 339.209L11.0145 340.146C11.539 340.535 12.2599 340.445 12.6313 339.945L13.0782 339.342C15.4244 336.18 14.6306 331.605 11.3094 329.158C7.98831 326.711 3.39347 327.341 1.0473 330.503L5.24521e-05 332.164L-1.52588e-05 338.5L-6.79493e-06 341.235L-1.18613e-05 346.439L-1.52588e-05 351L3.96969 353.597C5.01479 354.372 6.46321 354.192 7.20337 353.194L11.6723 347.171C12.4124 346.173 12.165 344.735 11.1199 343.96ZM1.51097 345.702C1.14818 346.191 0.58206 346.444 -1.18613e-05 346.439L-6.79493e-06 341.235C0.657114 340.696 1.64636 340.666 2.39136 341.219C3.26293 341.866 3.46891 343.063 2.85164 343.895L1.51097 345.702Z" fill="black"/>
<path d="M80.989 395.799L71.2085 388.542L74.0882 384.661C75.1942 383.17 77.3633 382.859 78.9362 384.003C80.5249 385.158 80.9067 387.339 79.7923 388.841L79.3454 389.443C78.9739 389.944 79.0971 390.66 79.6216 391.049L80.8836 391.985C81.4081 392.374 82.1289 392.284 82.5004 391.784L82.9473 391.181C85.2935 388.019 84.4997 383.444 81.1785 380.997C77.8574 378.551 73.2626 379.181 70.9164 382.343L68.0535 386.201L67.107 385.499C66.0619 384.724 64.6135 384.904 63.8733 385.902L59.4044 391.925C58.6642 392.922 58.9116 394.361 59.9567 395.136L73.8388 405.436C74.8839 406.211 76.3323 406.031 77.0725 405.033L81.5414 399.01C82.2815 398.013 82.0341 396.574 80.989 395.799ZM71.3801 397.541C70.7628 398.373 69.5569 398.523 68.6853 397.877C67.8138 397.23 67.6078 396.033 68.225 395.201L69.5657 393.394C70.183 392.562 71.3889 392.412 72.2604 393.058C73.132 393.705 73.338 394.902 72.7207 395.734L71.3801 397.541Z" fill="black"/>
<path d="M60.5758 277.303L50.7953 270.046L53.6749 266.165C54.781 264.674 56.9501 264.363 58.523 265.507C60.1117 266.662 60.4935 268.843 59.3791 270.345L58.9322 270.947C58.5607 271.448 58.6838 272.164 59.2084 272.553L60.4704 273.489C60.9949 273.878 61.7157 273.788 62.0872 273.288L62.5341 272.685C64.8803 269.523 64.0865 264.948 60.7653 262.501C57.4442 260.055 52.8493 260.685 50.5032 263.847L47.6403 267.705L46.6938 267.003C45.6487 266.228 44.2003 266.408 43.4601 267.405L38.9912 273.429C38.251 274.426 38.4984 275.865 39.5435 276.64L53.4256 286.94C54.4707 287.715 55.9191 287.535 56.6592 286.537L61.1281 280.514C61.8683 279.517 61.6209 278.078 60.5758 277.303ZM50.9668 279.045C50.3496 279.877 49.1437 280.027 48.2721 279.381C47.4005 278.734 47.1946 277.536 47.8118 276.705L49.1525 274.898C49.7698 274.066 50.9757 273.916 51.8472 274.562C52.7188 275.209 52.9248 276.406 52.3075 277.238L50.9668 279.045Z" fill="black"/>
<path d="M130.445 329.142L120.664 321.885L123.544 318.004C124.65 316.514 126.819 316.203 128.392 317.346C129.981 318.502 130.363 320.682 129.248 322.184L128.801 322.786C128.43 323.287 128.553 324.003 129.077 324.392L130.339 325.328C130.864 325.717 131.585 325.628 131.956 325.127L132.403 324.525C134.749 321.363 133.955 316.787 130.634 314.34C127.313 311.894 122.718 312.524 120.372 315.686L117.509 319.545L116.563 318.842C115.518 318.067 114.069 318.247 113.329 319.245L108.86 325.268C108.12 326.266 108.368 327.704 109.413 328.479L123.295 338.779C124.34 339.555 125.788 339.374 126.528 338.377L130.997 332.354C131.737 331.356 131.49 329.917 130.445 329.142ZM120.836 330.885C120.219 331.717 119.013 331.867 118.141 331.22C117.27 330.573 117.064 329.376 117.681 328.544L119.022 326.737C119.639 325.905 120.845 325.755 121.716 326.401C122.588 327.048 122.794 328.246 122.177 329.078L120.836 330.885Z" fill="black"/>
<path d="M110.032 210.646L100.251 203.389L103.131 199.508C104.237 198.018 106.406 197.707 107.979 198.85C109.568 200.006 109.949 202.186 108.835 203.688L108.388 204.29C108.017 204.791 108.14 205.507 108.664 205.896L109.926 206.832C110.451 207.222 111.172 207.132 111.543 206.631L111.99 206.029C114.336 202.867 113.542 198.291 110.221 195.844C106.9 193.398 102.305 194.028 99.959 197.19L97.0961 201.049L96.1496 200.346C95.1045 199.571 93.6561 199.751 92.9159 200.749L88.447 206.772C87.7069 207.77 87.9543 209.208 88.9994 209.983L102.881 220.283C103.927 221.059 105.375 220.878 106.115 219.881L110.584 213.858C111.324 212.86 111.077 211.422 110.032 210.646ZM100.423 212.389C99.8054 213.221 98.5995 213.371 97.728 212.724C96.8564 212.077 96.6504 210.88 97.2677 210.048L98.6084 208.241C99.2256 207.409 100.432 207.259 101.303 207.906C102.175 208.552 102.381 209.75 101.763 210.582L100.423 212.389Z" fill="black"/>
<path d="M179.901 262.485L170.12 255.229L173 251.348C174.106 249.857 176.275 249.546 177.848 250.69C179.437 251.845 179.818 254.025 178.704 255.527L178.257 256.13C177.886 256.63 178.009 257.346 178.533 257.735L179.795 258.672C180.32 259.061 181.041 258.971 181.412 258.47L181.859 257.868C184.205 254.706 183.411 250.13 180.09 247.684C176.769 245.237 172.174 245.867 169.828 249.029L166.965 252.888L166.019 252.186C164.974 251.41 163.525 251.591 162.785 252.588L158.316 258.611C157.576 259.609 157.823 261.047 158.868 261.823L172.75 272.123C173.796 272.898 175.244 272.718 175.984 271.72L180.453 265.697C181.193 264.699 180.946 263.261 179.901 262.485ZM170.292 264.228C169.674 265.06 168.469 265.21 167.597 264.563C166.725 263.917 166.519 262.719 167.137 261.887L168.477 260.08C169.095 259.248 170.301 259.098 171.172 259.745C172.044 260.391 172.25 261.589 171.632 262.421L170.292 264.228Z" fill="black"/>
<path d="M102.211 500C99.3262 497.513 94.9004 497.237 92.0627 500H102.211Z" fill="black"/>
<path d="M150.858 447.638L141.078 440.381L143.957 436.5C145.063 435.009 147.232 434.699 148.805 435.842C150.394 436.998 150.776 439.178 149.661 440.68L149.214 441.282C148.843 441.783 148.966 442.499 149.491 442.888L150.753 443.824C151.277 444.213 151.998 444.124 152.369 443.623L152.816 443.021C155.163 439.859 154.369 435.283 151.048 432.836C147.726 430.39 143.132 431.02 140.785 434.182L137.923 438.041L136.976 437.338C135.931 436.563 134.483 436.743 133.742 437.741L129.273 443.764C128.533 444.762 128.781 446.2 129.826 446.975L143.708 457.275C144.753 458.051 146.201 457.87 146.941 456.873L151.41 450.85C152.151 449.852 151.903 448.413 150.858 447.638ZM141.249 449.381C140.632 450.213 139.426 450.363 138.554 449.716C137.683 449.069 137.477 447.872 138.094 447.04L139.435 445.233C140.052 444.401 141.258 444.251 142.129 444.897C143.001 445.544 143.207 446.742 142.59 447.574L141.249 449.381Z" fill="black"/>
<path d="M220.727 499.477L210.947 492.221L213.826 488.339C214.932 486.849 217.101 486.538 218.674 487.681C220.263 488.837 220.645 491.017 219.53 492.519L219.084 493.121C218.712 493.622 218.835 494.338 219.36 494.727L220.622 495.663C221.146 496.053 221.867 495.963 222.239 495.462L222.685 494.86C225.032 491.698 224.238 487.122 220.917 484.676C217.596 482.229 213.001 482.859 210.654 486.021L207.792 489.88L206.845 489.178C205.8 488.402 204.352 488.582 203.611 489.58L199.143 495.603C198.402 496.601 198.65 498.039 199.695 498.815L201.292 500H221.247C221.105 499.806 220.932 499.629 220.727 499.477ZM207.608 500C207.6 499.607 207.715 499.213 207.963 498.879L209.304 497.072C209.921 496.24 211.127 496.09 211.999 496.737C212.87 497.383 213.076 498.581 212.459 499.413L212.023 500H207.608Z" fill="black"/>
<path d="M200.314 380.981L190.533 373.725L193.413 369.844C194.519 368.353 196.688 368.042 198.261 369.186C199.85 370.341 200.232 372.521 199.117 374.023L198.67 374.626C198.299 375.126 198.422 375.842 198.946 376.231L200.208 377.168C200.733 377.557 201.454 377.467 201.825 376.966L202.272 376.364C204.618 373.202 203.825 368.626 200.503 366.18C197.182 363.733 192.587 364.363 190.241 367.525L187.378 371.384L186.432 370.682C185.387 369.906 183.938 370.086 183.198 371.084L178.729 377.107C177.989 378.105 178.237 379.543 179.282 380.319L193.164 390.618C194.209 391.394 195.657 391.214 196.397 390.216L200.866 384.193C201.606 383.195 201.359 381.757 200.314 380.981ZM190.705 382.724C190.088 383.556 188.882 383.706 188.01 383.059C187.139 382.413 186.933 381.215 187.55 380.383L188.891 378.576C189.508 377.744 190.714 377.594 191.585 378.241C192.457 378.887 192.663 380.085 192.046 380.917L190.705 382.724Z" fill="black"/>
<path d="M270.183 432.821L260.403 425.564L263.282 421.683C264.388 420.192 266.557 419.881 268.13 421.025C269.719 422.18 270.101 424.36 268.986 425.862L268.54 426.465C268.168 426.965 268.291 427.681 268.816 428.07L270.078 429.007C270.602 429.396 271.323 429.306 271.695 428.806L272.141 428.203C274.488 425.041 273.694 420.466 270.373 418.019C267.052 415.572 262.457 416.202 260.111 419.365L257.248 423.223L256.301 422.521C255.256 421.745 253.808 421.926 253.067 422.923L248.599 428.947C247.858 429.944 248.106 431.383 249.151 432.158L263.033 442.458C264.078 443.233 265.526 443.053 266.267 442.055L270.736 436.032C271.476 435.034 271.228 433.596 270.183 432.821ZM260.574 434.563C259.957 435.395 258.751 435.545 257.879 434.899C257.008 434.252 256.802 433.054 257.419 432.222L258.76 430.415C259.377 429.583 260.583 429.433 261.455 430.08C262.326 430.727 262.532 431.924 261.915 432.756L260.574 434.563Z" fill="black"/>
<path d="M249.77 314.325L239.989 307.068L242.869 303.187C243.975 301.696 246.144 301.385 247.717 302.529C249.306 303.684 249.688 305.864 248.573 307.366L248.126 307.969C247.755 308.469 247.878 309.185 248.402 309.575L249.665 310.511C250.189 310.9 250.91 310.81 251.281 310.31L251.728 309.707C254.074 306.545 253.281 301.97 249.959 299.523C246.638 297.076 242.043 297.706 239.697 300.869L236.834 304.727L235.888 304.025C234.843 303.249 233.394 303.43 232.654 304.427L228.185 310.451C227.445 311.448 227.692 312.887 228.738 313.662L242.62 323.962C243.665 324.737 245.113 324.557 245.853 323.559L250.322 317.536C251.062 316.539 250.815 315.1 249.77 314.325ZM240.161 316.067C239.544 316.899 238.338 317.049 237.466 316.403C236.595 315.756 236.389 314.558 237.006 313.726L238.346 311.919C238.964 311.087 240.17 310.937 241.041 311.584C241.913 312.231 242.119 313.428 241.502 314.26L240.161 316.067Z" fill="black"/>
<path d="M319.639 366.164L309.858 358.907L312.738 355.026C313.844 353.535 316.013 353.224 317.586 354.368C319.175 355.523 319.557 357.704 318.442 359.206L317.995 359.808C317.624 360.309 317.747 361.025 318.272 361.414L319.534 362.35C320.058 362.739 320.779 362.65 321.15 362.149L321.597 361.547C323.943 358.384 323.15 353.809 319.829 351.362C316.507 348.916 311.913 349.546 309.566 352.708L306.703 356.566L305.757 355.864C304.712 355.089 303.263 355.269 302.523 356.267L298.054 362.29C297.314 363.287 297.562 364.726 298.607 365.501L312.489 375.801C313.534 376.576 314.982 376.396 315.722 375.399L320.191 369.375C320.931 368.378 320.684 366.939 319.639 366.164ZM310.03 367.907C309.413 368.738 308.207 368.889 307.335 368.242C306.464 367.595 306.258 366.398 306.875 365.566L308.216 363.759C308.833 362.927 310.039 362.777 310.91 363.423C311.782 364.07 311.988 365.268 311.371 366.1L310.03 367.907Z" fill="black"/>
<path d="M340.052 484.66L330.272 477.403L333.151 473.522C334.257 472.031 336.426 471.72 337.999 472.864C339.588 474.019 339.97 476.2 338.855 477.702L338.409 478.304C338.037 478.805 338.16 479.521 338.685 479.91L339.947 480.846C340.471 481.235 341.192 481.146 341.564 480.645L342.01 480.043C344.357 476.88 343.563 472.305 340.242 469.858C336.921 467.412 332.326 468.042 329.98 471.204L327.117 475.062L326.17 474.36C325.125 473.585 323.677 473.765 322.936 474.763L318.468 480.786C317.727 481.783 317.975 483.222 319.02 483.997L332.902 494.297C333.947 495.072 335.395 494.892 336.136 493.895L340.605 487.871C341.345 486.874 341.097 485.435 340.052 484.66ZM330.443 486.402C329.826 487.234 328.62 487.385 327.748 486.738C326.877 486.091 326.671 484.894 327.288 484.062L328.629 482.255C329.246 481.423 330.452 481.273 331.324 481.919C332.195 482.566 332.401 483.764 331.784 484.596L330.443 486.402Z" fill="black"/>
<path d="M389.508 418.003L379.728 410.747L382.607 406.865C383.713 405.375 385.882 405.064 387.455 406.207C389.044 407.363 389.426 409.543 388.311 411.045L387.864 411.647C387.493 412.148 387.616 412.864 388.141 413.253L389.403 414.189C389.927 414.579 390.648 414.489 391.019 413.988L391.466 413.386C393.813 410.224 393.019 405.648 389.698 403.202C386.376 400.755 381.782 401.385 379.435 404.547L376.573 408.406L375.626 407.703C374.581 406.928 373.133 407.108 372.392 408.106L367.923 414.129C367.183 415.127 367.431 416.565 368.476 417.341L382.358 427.64C383.403 428.416 384.851 428.235 385.592 427.238L390.06 421.215C390.801 420.217 390.553 418.779 389.508 418.003ZM379.899 419.746C379.282 420.578 378.076 420.728 377.204 420.081C376.333 419.435 376.127 418.237 376.744 417.405L378.085 415.598C378.702 414.766 379.908 414.616 380.779 415.263C381.651 415.909 381.857 417.107 381.24 417.939L379.899 419.746Z" fill="black"/>
<path d="M459.377 469.842L449.597 462.586L452.476 458.705C453.582 457.214 455.751 456.903 457.324 458.047C458.913 459.202 459.295 461.382 458.18 462.884L457.734 463.487C457.362 463.987 457.485 464.703 458.01 465.092L459.272 466.029C459.796 466.418 460.517 466.328 460.889 465.827L461.335 465.225C463.682 462.063 462.888 457.487 459.567 455.041C456.246 452.594 451.651 453.224 449.305 456.386L446.442 460.245L445.495 459.543C444.45 458.767 443.002 458.948 442.261 459.945L437.793 465.968C437.052 466.966 437.3 468.404 438.345 469.18L452.227 479.48C453.272 480.255 454.72 480.075 455.461 479.077L459.929 473.054C460.67 472.056 460.422 470.618 459.377 469.842ZM449.768 471.585C449.151 472.417 447.945 472.567 447.073 471.92C446.202 471.274 445.996 470.076 446.613 469.244L447.954 467.437C448.571 466.605 449.777 466.455 450.649 467.102C451.52 467.749 451.726 468.946 451.109 469.778L449.768 471.585Z" fill="black"/>
</mask>
<g mask="url(#mask0)">
<path d="M0 0H500V500H0V0Z" fill="black"/>
</g>
</g>
<g filter="url(#filter0_d)">
<path d="M140.494 352.224C140.494 347.658 138.882 344.167 135.66 341.75C132.437 339.279 126.636 336.701 118.257 334.016C109.878 331.276 103.245 328.591 98.3575 325.959C85.0372 318.762 78.377 309.067 78.377 296.875C78.377 290.537 80.1495 284.897 83.6944 279.956C87.293 274.96 92.4224 271.066 99.0826 268.273C105.796 265.48 113.316 264.084 121.641 264.084C130.02 264.084 137.486 265.615 144.039 268.676C150.591 271.684 155.667 275.954 159.266 281.486C162.918 287.019 164.744 293.303 164.744 300.339H140.574C140.574 294.968 138.882 290.805 135.499 287.851C132.115 284.843 127.361 283.339 121.238 283.339C115.33 283.339 110.738 284.602 107.461 287.126C104.185 289.597 102.547 292.873 102.547 296.955C102.547 300.769 104.454 303.964 108.267 306.542C112.134 309.121 117.801 311.538 125.267 313.793C139.017 317.929 149.034 323.059 155.318 329.182C161.602 335.305 164.744 342.932 164.744 352.062C164.744 362.214 160.904 370.19 153.223 375.991C145.543 381.738 135.203 384.611 122.205 384.611C113.182 384.611 104.964 382.973 97.5518 379.697C90.1397 376.367 84.4732 371.828 80.5523 366.081C76.6851 360.334 74.7515 353.674 74.7515 346.101H99.002C99.002 359.045 106.736 365.517 122.205 365.517C127.952 365.517 132.437 364.362 135.66 362.053C138.882 359.689 140.494 356.413 140.494 352.224ZM219.771 384.611C206.988 384.611 196.568 380.69 188.511 372.849C180.508 365.007 176.507 354.56 176.507 341.508V339.252C176.507 330.498 178.199 322.683 181.583 315.808C184.966 308.879 189.747 303.562 195.923 299.855C202.154 296.096 209.244 294.216 217.193 294.216C229.117 294.216 238.489 297.976 245.311 305.495C252.186 313.015 255.623 323.676 255.623 337.48V346.987H200.113C200.865 352.68 203.121 357.246 206.88 360.683C210.694 364.121 215.501 365.839 221.302 365.839C230.272 365.839 237.281 362.59 242.33 356.091L253.77 368.901C250.279 373.842 245.552 377.709 239.59 380.502C233.628 383.242 227.022 384.611 219.771 384.611ZM217.112 313.068C212.493 313.068 208.733 314.626 205.833 317.741C202.986 320.856 201.16 325.314 200.355 331.115H232.742V329.262C232.635 324.106 231.238 320.131 228.553 317.338C225.867 314.492 222.054 313.068 217.112 313.068ZM316.128 358.911C316.128 356.064 314.705 353.835 311.858 352.224C309.065 350.559 304.554 349.082 298.323 347.792C277.591 343.442 267.225 334.633 267.225 321.367C267.225 313.632 270.42 307.187 276.812 302.031C283.257 296.821 291.663 294.216 302.029 294.216C313.094 294.216 321.929 296.821 328.536 302.031C335.196 307.241 338.526 314.008 338.526 322.333H315.242C315.242 319.003 314.168 316.264 312.02 314.116C309.871 311.914 306.514 310.812 301.949 310.812C298.028 310.812 294.993 311.699 292.845 313.471C290.696 315.244 289.622 317.5 289.622 320.239C289.622 322.817 290.831 324.912 293.248 326.523C295.718 328.081 299.854 329.45 305.655 330.632C311.456 331.76 316.343 333.049 320.318 334.499C332.618 339.011 338.768 346.826 338.768 357.944C338.768 365.893 335.357 372.338 328.536 377.28C321.714 382.167 312.906 384.611 302.11 384.611C294.805 384.611 288.306 383.322 282.613 380.744C276.973 378.112 272.542 374.541 269.319 370.029C266.097 365.463 264.485 360.549 264.485 355.285H286.561C286.775 359.421 288.306 362.59 291.153 364.792C294 366.994 297.813 368.095 302.593 368.095C307.051 368.095 310.408 367.263 312.664 365.598C314.974 363.879 316.128 361.65 316.128 358.911ZM401.045 358.911C401.045 356.064 399.622 353.835 396.775 352.224C393.982 350.559 389.471 349.082 383.24 347.792C362.508 343.442 352.142 334.633 352.142 321.367C352.142 313.632 355.337 307.187 361.729 302.031C368.174 296.821 376.58 294.216 386.946 294.216C398.011 294.216 406.846 296.821 413.453 302.031C420.113 307.241 423.443 314.008 423.443 322.333H400.159C400.159 319.003 399.085 316.264 396.937 314.116C394.788 311.914 391.431 310.812 386.866 310.812C382.945 310.812 379.91 311.699 377.762 313.471C375.613 315.244 374.539 317.5 374.539 320.239C374.539 322.817 375.748 324.912 378.165 326.523C380.635 328.081 384.771 329.45 390.572 330.632C396.373 331.76 401.26 333.049 405.235 334.499C417.535 339.011 423.685 346.826 423.685 357.944C423.685 365.893 420.274 372.338 413.453 377.28C406.631 382.167 397.823 384.611 387.027 384.611C379.722 384.611 373.223 383.322 367.53 380.744C361.89 378.112 357.459 374.541 354.236 370.029C351.014 365.463 349.402 360.549 349.402 355.285H371.478C371.692 359.421 373.223 362.59 376.07 364.792C378.917 366.994 382.73 368.095 387.51 368.095C391.968 368.095 395.325 367.263 397.581 365.598C399.891 363.879 401.045 361.65 401.045 358.911Z" fill="#EEEEEE"/>
<path d="M107.969 198.912V244H81.6016V116.031H131.523C141.133 116.031 149.57 117.789 156.836 121.305C164.16 124.82 169.785 129.83 173.711 136.334C177.637 142.779 179.6 150.133 179.6 158.395C179.6 170.934 175.293 180.836 166.68 188.102C158.125 195.309 146.26 198.912 131.084 198.912H107.969ZM107.969 177.555H131.523C138.496 177.555 143.799 175.914 147.432 172.633C151.123 169.352 152.969 164.664 152.969 158.57C152.969 152.301 151.123 147.232 147.432 143.365C143.74 139.498 138.643 137.506 132.139 137.389H107.969V177.555ZM301.943 244H275.576V189.156H224.16V244H197.793V116.031H224.16V167.887H275.576V116.031H301.943V244ZM351.426 198.912V244H325.059V116.031H374.981C384.59 116.031 393.027 117.789 400.293 121.305C407.617 124.82 413.242 129.83 417.168 136.334C421.094 142.779 423.057 150.133 423.057 158.395C423.057 170.934 418.75 180.836 410.137 188.102C401.582 195.309 389.717 198.912 374.541 198.912H351.426ZM351.426 177.555H374.981C381.953 177.555 387.256 175.914 390.889 172.633C394.58 169.352 396.426 164.664 396.426 158.57C396.426 152.301 394.58 147.232 390.889 143.365C387.197 139.498 382.1 137.506 375.596 137.389H351.426V177.555Z" fill="#EEEEEE"/>
</g>
<defs>
<filter id="filter0_d" x="70.7515" y="116.031" width="356.933" height="276.58" filterUnits="userSpaceOnUse" color-interpolation-filters="sRGB">
<feFlood flood-opacity="0" result="BackgroundImageFix"/>
<feColorMatrix in="SourceAlpha" type="matrix" values="0 0 0 0 0 0 0 0 0 0 0 0 0 0 0 0 0 0 127 0"/>
<feOffset dy="4"/>
<feGaussianBlur stdDeviation="2"/>
<feColorMatrix type="matrix" values="0 0 0 0 0 0 0 0 0 0 0 0 0 0 0 0 0 0 0.25 0"/>
<feBlend mode="normal" in2="BackgroundImageFix" result="effect1_dropShadow"/>
<feBlend mode="normal" in="SourceGraphic" in2="effect1_dropShadow" result="shape"/>
</filter>
</defs>
</svg>
