<svg width="100" height="100" fill="none" xmlns="http://www.w3.org/2000/svg"><rect width="100" height="100" rx="10" fill="#fff"/><path d="M37.637 81c-.533-1.51-.874-3.747-1.022-6.71-1.866 2.43-4.251 4.31-7.154 5.644-2.873 1.303-5.924 1.955-9.153 1.955-4.621 0-8.369-1.289-11.242-3.866C6.222 75.446 4.8 72.187 4.8 68.248c0-4.68 1.94-8.384 5.821-11.109 3.91-2.725 9.346-4.088 16.307-4.088h9.642v-5.465c0-3.436-1.066-6.132-3.199-8.087-2.103-1.985-5.184-2.977-9.242-2.977-3.703 0-6.769.948-9.198 2.844-2.429 1.896-3.643 4.176-3.643 6.843l-5.332-.045c0-3.821 1.777-7.124 5.332-9.909 3.554-2.814 7.924-4.22 13.108-4.22 5.361 0 9.582 1.347 12.663 4.043 3.11 2.666 4.71 6.398 4.799 11.197v22.75c0 4.65.489 8.131 1.466 10.442V81h-5.687zM20.93 77.179c3.555 0 6.724-.86 9.509-2.577 2.814-1.719 4.858-4.014 6.131-6.888V57.14h-9.508c-5.303.06-9.45 1.037-12.442 2.933-2.992 1.866-4.488 4.443-4.488 7.731 0 2.696.993 4.932 2.978 6.71 2.014 1.777 4.62 2.666 7.82 2.666z" fill="#000"/><path d="M44.668 77.8c0-1.036.326-1.91.977-2.62.682-.741 1.615-1.112 2.8-1.112 1.185 0 2.118.37 2.8 1.111.68.711 1.021 1.585 1.021 2.622s-.34 1.896-1.022 2.577c-.681.652-1.614.978-2.8.978-1.184 0-2.117-.326-2.799-.978-.651-.681-.977-1.54-.977-2.577zm9.208-21.283c0-7.465 1.66-13.404 4.977-17.818 3.347-4.443 7.88-6.665 13.597-6.665 6.487 0 11.434 2.563 14.84 7.687V12.75h5.288V81h-4.977l-.222-6.398c-3.406 4.858-8.412 7.287-15.018 7.287-5.54 0-10.013-2.222-13.42-6.665-3.376-4.473-5.065-10.502-5.065-18.085v-.622zm5.377.933c0 6.132 1.23 10.975 3.688 14.53 2.459 3.525 5.924 5.288 10.397 5.288 6.547 0 11.198-2.889 13.952-8.665V46.031c-2.754-6.25-7.376-9.376-13.863-9.376-4.473 0-7.953 1.763-10.442 5.288-2.488 3.495-3.732 8.664-3.732 15.507z" fill="red"/></svg>