<svg width="100" height="100" fill="none" xmlns="http://www.w3.org/2000/svg"><rect width="100" height="100" rx="10" fill="#fff"/><circle cx="82.5" cy="63.5" r="7.5" fill="red"/><path d="M36.375 71c-.375-1.063-.615-2.635-.719-4.719-1.312 1.709-2.99 3.031-5.031 3.969a15.402 15.402 0 01-6.438 1.375c-3.25 0-5.885-.906-7.906-2.719-2-1.812-3-4.104-3-6.875 0-3.291 1.365-5.896 4.094-7.812 2.75-1.917 6.573-2.875 11.469-2.875h6.781V47.5c0-2.417-.75-4.313-2.25-5.688-1.48-1.395-3.646-2.093-6.5-2.093-2.604 0-4.76.666-6.469 2-1.708 1.333-2.562 2.937-2.562 4.812l-3.75-.031c0-2.688 1.25-5.01 3.75-6.969 2.5-1.979 5.573-2.968 9.218-2.968 3.771 0 6.74.947 8.907 2.843 2.187 1.875 3.312 4.5 3.375 7.875v16c0 3.271.343 5.719 1.031 7.344V71h-4zm-11.75-2.688c2.5 0 4.73-.604 6.688-1.812 1.979-1.208 3.416-2.823 4.312-4.844V54.22h-6.688c-3.729.041-6.645.729-8.75 2.062-2.104 1.313-3.156 3.125-3.156 5.438 0 1.896.698 3.468 2.094 4.718 1.417 1.25 3.25 1.876 5.5 1.876zm35.969-8.343l6.281-22.782h9.438L64.906 71h-8.625L44.875 37.187h9.438l6.28 22.782z" fill="#000"/></svg>