<svg width="100" height="100" fill="none" xmlns="http://www.w3.org/2000/svg"><rect width="100" height="100" rx="10" fill="#fff"/><path d="M26.078 66c-.281-.797-.46-1.977-.539-3.54-.984 1.282-2.242 2.274-3.773 2.977a11.552 11.552 0 01-4.828 1.032c-2.438 0-4.415-.68-5.93-2.04-1.5-1.359-2.25-3.077-2.25-5.156 0-2.468 1.023-4.421 3.07-5.859 2.063-1.437 4.93-2.156 8.602-2.156h5.086v-2.883c0-1.813-.563-3.234-1.688-4.266-1.11-1.047-2.734-1.57-4.875-1.57-1.953 0-3.57.5-4.851 1.5-1.282 1-1.922 2.203-1.922 3.61l-2.813-.024c0-2.016.938-3.758 2.813-5.227 1.875-1.484 4.18-2.226 6.914-2.226 2.828 0 5.054.71 6.68 2.133 1.64 1.406 2.484 3.375 2.53 5.906v12c0 2.453.259 4.289.774 5.508V66h-3zm-8.812-2.016c1.875 0 3.547-.453 5.015-1.359 1.485-.906 2.563-2.117 3.235-3.633v-5.578H20.5c-2.797.031-4.984.547-6.563 1.547-1.578.984-2.367 2.344-2.367 4.078 0 1.422.524 2.602 1.57 3.54 1.063.937 2.438 1.405 4.126 1.405zm26.976-6.257l4.711-17.086h7.078L47.477 66h-6.47l-8.554-25.36h7.078l4.711 17.087z" fill="#000"/><path d="M59.828 64.313c0-.547.172-1.008.516-1.383.36-.39.851-.586 1.476-.586s1.117.195 1.477.586c.36.375.539.836.539 1.383 0 .546-.18 1-.54 1.359-.358.344-.85.516-1.476.516-.625 0-1.117-.172-1.476-.516-.344-.36-.516-.813-.516-1.36zm10.617-11.227c0-3.938.875-7.07 2.625-9.398 1.766-2.344 4.157-3.516 7.172-3.516 3.422 0 6.031 1.351 7.828 4.055V30h2.79v36h-2.626l-.117-3.375c-1.797 2.563-4.437 3.844-7.922 3.844-2.922 0-5.28-1.172-7.078-3.516-1.781-2.36-2.672-5.539-2.672-9.539v-.328zm2.836.492c0 3.234.649 5.79 1.946 7.664 1.296 1.86 3.125 2.79 5.484 2.79 3.453 0 5.906-1.524 7.36-4.571V47.555c-1.454-3.297-3.891-4.946-7.313-4.946-2.36 0-4.195.93-5.508 2.79-1.313 1.843-1.969 4.57-1.969 8.18z" fill="red"/></svg>