<svg width="100" height="100" fill="none" xmlns="http://www.w3.org/2000/svg"><rect width="100" height="100" rx="10" fill="#fff"/><path d="M38.778 75c-.422-1.195-.691-2.965-.809-5.309-1.476 1.922-3.363 3.41-5.66 4.465-2.273 1.031-4.687 1.547-7.242 1.547-3.656 0-6.62-1.02-8.894-3.059-2.25-2.038-3.375-4.617-3.375-7.734 0-3.703 1.535-6.633 4.605-8.789 3.094-2.156 7.395-3.234 12.902-3.234h7.63v-4.325c0-2.718-.844-4.851-2.532-6.398-1.664-1.57-4.101-2.355-7.312-2.355-2.93 0-5.356.75-7.278 2.25-1.922 1.5-2.883 3.304-2.883 5.414l-4.218-.035c0-3.024 1.406-5.637 4.218-7.84 2.813-2.227 6.27-3.34 10.372-3.34 4.242 0 7.582 1.066 10.02 3.199 2.46 2.11 3.726 5.063 3.796 8.86v18c0 3.68.387 6.433 1.16 8.261V75h-4.5zM25.56 71.977c2.813 0 5.32-.68 7.524-2.04 2.226-1.359 3.844-3.175 4.851-5.449v-8.367h-7.523c-4.195.047-7.477.82-9.844 2.32-2.367 1.477-3.55 3.516-3.55 6.118 0 2.132.785 3.902 2.355 5.308 1.594 1.406 3.656 2.11 6.187 2.11z" fill="#000"/><path d="M45.781 72.469c0-.82.258-1.512.774-2.075.539-.585 1.277-.878 2.215-.878.937 0 1.675.293 2.214.878.54.563.809 1.254.809 2.075 0 .82-.27 1.5-.809 2.039-.539.515-1.277.773-2.215.773-.937 0-1.675-.258-2.214-.773-.516-.54-.774-1.219-.774-2.04zm8.726-16.84c0-5.906 1.313-10.606 3.938-14.098 2.648-3.515 6.234-5.273 10.757-5.273 5.133 0 9.047 2.027 11.743 6.082V21h4.183v54h-3.937l-.176-5.063c-2.695 3.844-6.656 5.766-11.883 5.766-4.383 0-7.922-1.758-10.617-5.273-2.672-3.54-4.008-8.309-4.008-14.309v-.492zm4.254.738c0 4.852.973 8.684 2.918 11.496 1.945 2.79 4.687 4.184 8.227 4.184 5.18 0 8.859-2.285 11.038-6.856V47.332c-2.18-4.945-5.835-7.418-10.968-7.418-3.54 0-6.293 1.395-8.262 4.184-1.969 2.765-2.953 6.855-2.953 12.27z" fill="red"/></svg>