<svg width="100" height="100" fill="none" xmlns="http://www.w3.org/2000/svg"><rect width="100" height="100" rx="10" fill="#fff"/><path d="M41.984 71c-.422-1.195-.691-2.965-.808-5.309-1.477 1.922-3.364 3.41-5.66 4.465-2.274 1.031-4.688 1.547-7.243 1.547-3.656 0-6.62-1.02-8.894-3.059-2.25-2.038-3.375-4.617-3.375-7.734 0-3.703 1.535-6.633 4.605-8.789 3.094-2.156 7.395-3.234 12.903-3.234h7.629v-4.325c0-2.718-.844-4.851-2.532-6.398-1.664-1.57-4.101-2.355-7.312-2.355-2.93 0-5.356.75-7.277 2.25-1.922 1.5-2.883 3.304-2.883 5.414l-4.219-.035c0-3.024 1.406-5.637 4.219-7.84 2.812-2.227 6.27-3.34 10.37-3.34 4.243 0 7.583 1.066 10.02 3.199 2.461 2.11 3.727 5.063 3.797 8.86v18c0 3.68.387 6.433 1.16 8.261V71h-4.5zm-13.218-3.023c2.812 0 5.32-.68 7.523-2.04 2.227-1.359 3.844-3.175 4.852-5.449v-8.367h-7.524c-4.195.047-7.476.82-9.844 2.32-2.367 1.477-3.55 3.516-3.55 6.118 0 2.132.785 3.902 2.355 5.308 1.594 1.406 3.656 2.11 6.188 2.11zM69.23 58.59l7.066-25.63h10.617L74.082 71h-9.703L51.547 32.96h10.617l7.067 25.63z" fill="#000"/></svg>