<svg width="100" height="100" fill="none" xmlns="http://www.w3.org/2000/svg"><rect width="100" height="100" rx="10" fill="#fff"/><path d="M24.164 58c-.14-.398-.23-.988-.27-1.77a4.932 4.932 0 01-1.886 1.489 5.777 5.777 0 01-2.414.515c-1.219 0-2.207-.34-2.965-1.02-.75-.679-1.125-1.538-1.125-2.577 0-1.235.512-2.211 1.535-2.93 1.031-.719 2.465-1.078 4.3-1.078h2.544v-1.441c0-.907-.281-1.618-.844-2.133-.555-.524-1.367-.785-2.437-.785-.977 0-1.786.25-2.426.75-.64.5-.961 1.101-.961 1.804l-1.406-.011c0-1.008.468-1.88 1.406-2.614.937-.742 2.09-1.113 3.457-1.113 1.414 0 2.527.355 3.34 1.066.82.703 1.242 1.688 1.265 2.953v6c0 1.227.13 2.145.387 2.754V58h-1.5zm-4.406-1.008c.937 0 1.773-.226 2.508-.68.742-.453 1.28-1.058 1.617-1.816v-2.789h-2.508c-1.398.016-2.492.273-3.281.773-.79.493-1.184 1.172-1.184 2.04 0 .71.262 1.3.785 1.77.532.468 1.22.702 2.063.702zm13.488-3.129l2.356-8.543h3.539L34.863 58H31.63l-4.277-12.68h3.539l2.355 8.543zm18.422-.468l1.664-8.075h3.27L53.367 58h-2.836l-2.402-7.98L45.727 58h-2.825l-3.234-12.68h3.27l1.652 8.063 2.32-8.063h2.45l2.308 8.075zM59.215 58V47.805h-1.887V45.32h1.887v-1.078c0-1.422.406-2.523 1.219-3.304.82-.79 1.964-1.184 3.433-1.184.469 0 1.043.078 1.723.234l-.035 2.625a4.319 4.319 0 00-1.032-.105c-1.273 0-1.91.597-1.91 1.793v1.02h2.52v2.484h-2.52V58h-3.398z" fill="#000"/><path d="M67.29 57.156c0-.273.085-.504.257-.691.18-.196.426-.293.738-.293.313 0 .559.098.738.293.18.187.27.418.27.691 0 .274-.09.5-.27.68-.18.172-.425.258-.738.258-.312 0-.558-.086-.738-.258a.944.944 0 01-.258-.68zm5.308-5.613c0-1.969.437-3.535 1.312-4.7.883-1.171 2.078-1.757 3.586-1.757 1.711 0 3.016.676 3.914 2.027V40h1.395v18h-1.313l-.058-1.688c-.899 1.282-2.22 1.922-3.961 1.922-1.461 0-2.641-.586-3.54-1.757-.89-1.18-1.335-2.77-1.335-4.77v-.164zm1.418.246c0 1.617.324 2.895.972 3.832.649.93 1.563 1.395 2.743 1.395 1.726 0 2.953-.762 3.68-2.285v-5.954c-.727-1.648-1.946-2.472-3.657-2.472-1.18 0-2.098.465-2.754 1.394-.656.922-.984 2.285-.984 4.09z" fill="red"/></svg>