<svg width="500" height="500" fill="none" xmlns="http://www.w3.org/2000/svg"><path d="M0 0h500v500H0V0z" fill="#5359B1"/><g opacity=".8"><mask id="a" mask-type="alpha" maskUnits="userSpaceOnUse" x="0" y="0" width="500" height="500"><path d="M19.75 40.31l-9.781-7.256 2.88-3.881c1.105-1.49 3.275-1.802 4.848-.658 1.588 1.155 1.97 3.336.856 4.838l-.447.602c-.372.5-.249 1.217.276 1.606l1.262.936c.524.39 1.245.3 1.617-.201l.447-.602c2.346-3.163 1.552-7.738-1.77-10.185-3.32-2.446-7.915-1.816-10.261 1.346l-2.863 3.858-.947-.702c-1.045-.775-2.493-.595-3.233.402L0 34v6.5l12.6 9.448c1.044.775 2.493.595 3.233-.403l4.469-6.023c.74-.997.492-2.436-.553-3.211zm-9.61 1.743c-.617.832-1.823.983-2.694.336-.872-.647-1.078-1.845-.46-2.676l1.34-1.807c.617-.832 1.823-.982 2.695-.336.871.647 1.077 1.844.46 2.676l-1.34 1.807zM89.618 92.15l-9.78-7.257 2.88-3.88c1.106-1.492 3.275-1.802 4.848-.659 1.588 1.156 1.97 3.336.856 4.838l-.447.602c-.372.5-.248 1.217.276 1.606l1.262.936c.524.39 1.245.3 1.617-.2l.447-.603c2.346-3.162 1.552-7.738-1.769-10.184-3.321-2.447-7.916-1.817-10.262 1.345l-2.863 3.859-.947-.703c-1.045-.775-2.493-.595-3.233.403l-4.47 6.023c-.74.998-.492 2.436.553 3.212l13.882 10.299c1.045.776 2.494.595 3.234-.402l4.469-6.023c.74-.998.493-2.436-.553-3.212zm-9.608 1.743c-.618.832-1.824.982-2.695.335-.872-.647-1.078-1.844-.46-2.676l1.34-1.807c.617-.832 1.823-.982 2.695-.336.871.647 1.077 1.845.46 2.677l-1.34 1.807zM139.074 25.493l-9.78-7.256 2.879-3.881c1.106-1.491 3.276-1.802 4.848-.659 1.589 1.156 1.971 3.336.857 4.838l-.447.602c-.372.501-.249 1.217.276 1.606l1.262.937c.524.389 1.245.3 1.617-.202l.447-.602c2.346-3.162 1.552-7.738-1.769-10.184-3.321-2.447-7.916-1.817-10.262 1.345l-2.863 3.859-.947-.702c-1.045-.776-2.493-.596-3.233.402l-4.469 6.023c-.74.998-.493 2.436.552 3.212l13.882 10.3c1.045.775 2.494.595 3.234-.403l4.469-6.023c.74-.998.492-2.436-.553-3.212zm-9.609 1.743c-.617.832-1.823.982-2.694.335-.872-.646-1.078-1.844-.461-2.676l1.341-1.807c.617-.832 1.823-.982 2.695-.335.871.646 1.077 1.844.46 2.676l-1.341 1.807zM159.487 143.989l-9.78-7.256 2.88-3.881c1.106-1.491 3.275-1.802 4.848-.658 1.588 1.155 1.97 3.335.856 4.837l-.447.603c-.372.5-.248 1.216.276 1.605l1.262.937c.525.389 1.245.299 1.617-.202l.447-.602c2.346-3.162 1.552-7.738-1.769-10.184-3.321-2.447-7.916-1.817-10.262 1.345l-2.863 3.859-.947-.702c-1.045-.776-2.493-.595-3.233.402l-4.469 6.023c-.74.998-.493 2.436.552 3.212l13.882 10.3c1.045.775 2.494.595 3.234-.403l4.469-6.023c.74-.998.493-2.436-.553-3.212zm-9.609 1.743c-.617.832-1.823.982-2.694.335-.872-.646-1.078-1.844-.461-2.676l1.341-1.807c.617-.832 1.823-.982 2.695-.335.871.646 1.077 1.844.46 2.676l-1.341 1.807zM229.357 195.829l-9.781-7.257 2.88-3.881c1.106-1.491 3.275-1.802 4.848-.658 1.588 1.155 1.97 3.335.856 4.837l-.447.603c-.372.501-.248 1.216.276 1.606l1.262.936c.525.389 1.245.299 1.617-.201l.447-.603c2.346-3.162 1.552-7.737-1.769-10.184-3.321-2.447-7.916-1.817-10.262 1.346l-2.863 3.858-.946-.702c-1.046-.775-2.494-.595-3.234.402l-4.469 6.024c-.74.997-.493 2.436.552 3.211l13.882 10.3c1.045.775 2.494.595 3.234-.403l4.469-6.023c.74-.997.493-2.436-.552-3.211zm-9.609 1.742c-.618.832-1.824.982-2.695.336-.872-.647-1.078-1.845-.46-2.677l1.34-1.807c.617-.831 1.823-.982 2.695-.335.872.647 1.078 1.844.46 2.676l-1.34 1.807zM208.943 77.333l-9.78-7.257 2.879-3.881c1.107-1.49 3.276-1.802 4.849-.658 1.588 1.155 1.97 3.335.856 4.837l-.447.603c-.372.5-.249 1.216.276 1.605l1.262.937c.524.389 1.245.3 1.617-.201l.447-.603c2.346-3.162 1.552-7.737-1.769-10.184-3.321-2.447-7.916-1.817-10.262 1.346l-2.863 3.858-.947-.702c-1.045-.776-2.493-.595-3.233.402l-4.469 6.024c-.74.997-.493 2.436.552 3.211l13.882 10.3c1.045.775 2.494.595 3.234-.403l4.469-6.023c.74-.997.492-2.436-.553-3.211zm-9.609 1.742c-.617.832-1.823.982-2.694.336-.872-.647-1.078-1.845-.461-2.677l1.341-1.807c.617-.832 1.823-.982 2.695-.335.871.647 1.077 1.844.46 2.676l-1.341 1.807zM278.813 129.172l-9.781-7.257 2.88-3.881c1.106-1.491 3.275-1.802 4.848-.658 1.588 1.155 1.97 3.336.856 4.838l-.447.602c-.372.501-.248 1.217.276 1.606l1.262.936c.525.389 1.245.3 1.617-.201l.447-.602c2.346-3.163 1.552-7.738-1.769-10.185-3.321-2.446-7.916-1.816-10.262 1.346l-2.863 3.858-.946-.702c-1.046-.775-2.494-.595-3.234.403l-4.469 6.023c-.74.997-.493 2.436.552 3.211l13.882 10.3c1.045.776 2.494.595 3.234-.402l4.469-6.024c.74-.997.493-2.436-.552-3.211zm-9.609 1.743c-.618.832-1.824.982-2.695.335-.872-.647-1.078-1.844-.46-2.676l1.34-1.807c.618-.832 1.823-.982 2.695-.336.872.647 1.078 1.845.46 2.677l-1.34 1.807zM258.399 10.676l-9.78-7.257L251.156 0h6.204c.672 1.158.658 2.62-.157 3.718l-.447.602c-.372.5-.249 1.217.276 1.606l1.262.936c.524.39 1.245.3 1.617-.201l.447-.602c1.322-1.782 1.647-4.013 1.084-6.059h-15.178l-.8 1.078-.947-.702a2.445 2.445 0 00-.742-.376h-1.392a2.172 2.172 0 00-1.1.779l-4.468 6.023c-.741.997-.493 2.436.552 3.211l13.882 10.3c1.045.776 2.494.595 3.234-.402l4.469-6.024c.74-.997.492-2.436-.553-3.211zm-9.609 1.743c-.617.832-1.823.982-2.694.335-.872-.647-1.078-1.844-.461-2.676l1.341-1.807c.617-.832 1.823-.982 2.695-.336.871.647 1.077 1.845.46 2.677l-1.341 1.807zM328.268 62.515l-9.78-7.256 2.88-3.882c1.106-1.49 3.275-1.801 4.848-.658 1.588 1.156 1.97 3.336.856 4.838l-.447.602c-.372.501-.249 1.217.276 1.606l1.262.937c.524.389 1.245.299 1.617-.202l.447-.602c2.346-3.162 1.552-7.738-1.769-10.184-3.321-2.447-7.916-1.817-10.262 1.345l-2.863 3.859-.947-.703c-1.045-.775-2.493-.595-3.233.403l-4.469 6.023c-.74.998-.493 2.436.552 3.212l13.882 10.3c1.045.775 2.494.594 3.234-.403l4.469-6.023c.74-.998.492-2.436-.553-3.212zm-9.609 1.743c-.617.832-1.823.982-2.694.335-.872-.646-1.078-1.844-.461-2.676l1.341-1.807c.617-.832 1.823-.982 2.695-.335.871.646 1.077 1.844.46 2.676l-1.341 1.807zM363.167 0l7.407 5.496c1.045.775 2.494.595 3.234-.403L377.587 0h-14.42zM299.226 247.668l-9.781-7.257 2.88-3.881c1.106-1.491 3.275-1.802 4.848-.658 1.589 1.155 1.971 3.336.856 4.838l-.447.602c-.371.501-.248 1.217.276 1.606l1.262.936c.525.389 1.246.3 1.617-.201l.447-.602c2.346-3.163 1.552-7.738-1.769-10.185-3.321-2.446-7.916-1.816-10.262 1.346l-2.863 3.858-.946-.702c-1.045-.775-2.494-.595-3.234.403l-4.469 6.023c-.74.997-.493 2.436.552 3.211l13.883 10.3c1.045.775 2.493.595 3.233-.402l4.469-6.024c.74-.997.493-2.436-.552-3.211zm-9.609 1.743c-.617.832-1.823.982-2.695.335-.871-.647-1.077-1.844-.46-2.676l1.34-1.807c.618-.832 1.824-.982 2.695-.336.872.647 1.078 1.845.46 2.677l-1.34 1.807zM369.095 299.507l-9.781-7.256 2.88-3.882c1.106-1.49 3.275-1.801 4.848-.658 1.589 1.156 1.971 3.336.856 4.838l-.447.602c-.371.501-.248 1.217.276 1.606l1.262.936c.525.39 1.246.3 1.617-.201l.447-.602c2.346-3.162 1.553-7.738-1.769-10.184-3.321-2.447-7.916-1.817-10.262 1.345l-2.863 3.859-.946-.703c-1.045-.775-2.494-.595-3.234.403l-4.469 6.023c-.74.998-.493 2.436.553 3.212l13.882 10.299c1.045.776 2.493.595 3.233-.402l4.469-6.023c.74-.998.493-2.436-.552-3.212zm-9.609 1.743c-.617.832-1.823.982-2.695.335-.871-.647-1.077-1.844-.46-2.676l1.341-1.807c.617-.832 1.823-.982 2.694-.335.872.646 1.078 1.844.461 2.676l-1.341 1.807zM348.682 181.011l-9.781-7.256 2.88-3.882c1.106-1.49 3.275-1.801 4.848-.658 1.589 1.156 1.97 3.336.856 4.838l-.447.602c-.371.501-.248 1.217.276 1.606l1.262.936c.525.39 1.246.3 1.617-.201l.447-.602c2.346-3.162 1.552-7.738-1.769-10.184-3.321-2.447-7.916-1.817-10.262 1.345l-2.863 3.859-.946-.702c-1.045-.776-2.494-.596-3.234.402l-4.469 6.023c-.74.998-.493 2.436.552 3.212l13.882 10.299c1.046.776 2.494.596 3.234-.402l4.469-6.023c.74-.998.493-2.436-.552-3.212zm-9.609 1.743c-.618.832-1.823.982-2.695.335-.872-.646-1.078-1.844-.46-2.676l1.34-1.807c.618-.832 1.824-.982 2.695-.335.872.646 1.078 1.844.46 2.676l-1.34 1.807zM418.551 232.851l-9.781-7.257 2.88-3.881c1.106-1.491 3.275-1.802 4.848-.658 1.589 1.155 1.97 3.335.856 4.837l-.447.603c-.371.5-.248 1.216.276 1.605l1.262.937c.525.389 1.246.299 1.617-.201l.447-.603c2.346-3.162 1.552-7.737-1.769-10.184-3.321-2.447-7.916-1.817-10.262 1.345l-2.863 3.859-.946-.702c-1.045-.776-2.494-.595-3.234.402l-4.469 6.023c-.74.998-.493 2.436.552 3.212l13.882 10.3c1.046.775 2.494.595 3.234-.403l4.469-6.023c.74-.998.493-2.436-.552-3.211zm-9.609 1.742c-.618.832-1.823.982-2.695.335-.872-.646-1.078-1.844-.46-2.676l1.34-1.807c.618-.832 1.824-.982 2.695-.335.872.647 1.078 1.844.46 2.676l-1.34 1.807zM398.138 114.355l-9.781-7.257 2.88-3.881c1.106-1.491 3.275-1.802 4.848-.658 1.588 1.155 1.97 3.335.856 4.837l-.447.603c-.372.5-.248 1.216.276 1.605l1.262.937c.525.389 1.245.299 1.617-.201l.447-.603c2.346-3.162 1.552-7.737-1.769-10.184-3.321-2.447-7.916-1.817-10.262 1.345l-2.863 3.859-.947-.702c-1.045-.776-2.493-.595-3.233.402l-4.469 6.023c-.74.998-.493 2.437.552 3.212l13.882 10.3c1.045.775 2.494.595 3.234-.403l4.469-6.023c.74-.998.493-2.436-.552-3.211zm-9.609 1.742c-.618.832-1.824.982-2.695.336-.872-.647-1.078-1.845-.46-2.677l1.34-1.807c.617-.832 1.823-.982 2.695-.335.872.647 1.077 1.844.46 2.676l-1.34 1.807zM468.007 166.194l-9.781-7.257 2.88-3.881c1.106-1.491 3.275-1.802 4.848-.658 1.588 1.155 1.97 3.336.856 4.838l-.447.602c-.371.501-.248 1.217.276 1.606l1.262.936c.525.389 1.246.299 1.617-.201l.447-.603c2.346-3.162 1.552-7.737-1.769-10.184-3.321-2.446-7.916-1.816-10.262 1.346l-2.863 3.858-.946-.702c-1.046-.775-2.494-.595-3.234.403l-4.469 6.023c-.74.997-.493 2.436.552 3.211l13.882 10.3c1.045.775 2.494.595 3.234-.403l4.469-6.023c.74-.997.493-2.436-.552-3.211zm-9.609 1.742c-.618.832-1.824.982-2.695.336-.872-.647-1.078-1.844-.46-2.676l1.34-1.807c.618-.832 1.823-.982 2.695-.336.872.647 1.078 1.845.46 2.676l-1.34 1.807zM447.593 47.698l-9.78-7.257 2.879-3.881c1.107-1.49 3.276-1.802 4.849-.658 1.588 1.155 1.97 3.336.856 4.838l-.447.602c-.372.5-.249 1.217.276 1.606l1.262.936c.524.39 1.245.3 1.617-.201l.447-.602c2.346-3.163 1.552-7.738-1.769-10.185-3.321-2.446-7.916-1.817-10.262 1.346l-2.863 3.858-.947-.702c-1.045-.775-2.493-.595-3.233.402l-4.469 6.024c-.74.997-.493 2.436.552 3.211l13.882 10.3c1.045.775 2.494.595 3.234-.403l4.469-6.023c.74-.997.492-2.436-.553-3.211zm-9.609 1.742c-.617.832-1.823.982-2.694.336-.872-.647-1.078-1.845-.461-2.677l1.341-1.806c.617-.832 1.823-.983 2.695-.336.871.647 1.077 1.844.46 2.676l-1.341 1.807zM500 89.94l-4.122 5.723c-.74.998-.493 2.436.552 3.212l3.57 2.74V89.94zM438.964 351.346l-9.781-7.256 2.88-3.881c1.106-1.491 3.275-1.802 4.848-.658 1.589 1.155 1.971 3.335.856 4.837l-.447.603c-.371.5-.248 1.216.276 1.605l1.263.937c.524.389 1.245.299 1.616-.202l.447-.602c2.346-3.162 1.553-7.738-1.769-10.184-3.321-2.447-7.916-1.817-10.262 1.345l-2.863 3.859-.946-.702c-1.045-.776-2.494-.595-3.234.402l-4.469 6.023c-.74.998-.492 2.436.553 3.212l13.882 10.3c1.045.775 2.493.595 3.233-.403l4.469-6.023c.74-.998.493-2.436-.552-3.212zm-9.609 1.743c-.617.832-1.823.982-2.695.335-.871-.646-1.077-1.844-.46-2.676l1.341-1.807c.617-.832 1.823-.982 2.694-.335.872.647 1.078 1.844.461 2.676l-1.341 1.807zM500 396.5l-.948-.571.948-1.429v-6.104c-.488.379-.856.817-1.24 1.334l-2.863 3.858-.946-.702c-1.045-.775-2.494-.595-3.234.402l-4.469 6.024c-.74.997-.492 2.436.553 3.211L500 411.53V396.5zm-.776 8.428c-.617.832-1.823.982-2.695.336-.871-.647-1.077-1.845-.46-2.676l1.341-1.807c.617-.832 1.718-1.055 2.59-.409V404l-.776.928zM488.42 284.69l-9.781-7.257 2.88-3.881c1.106-1.491 3.275-1.802 4.848-.658 1.589 1.155 1.971 3.336.856 4.838l-.447.602c-.371.501-.248 1.217.276 1.606l1.262.936c.525.389 1.246.299 1.617-.201l.447-.603c2.346-3.162 1.552-7.737-1.769-10.184-3.321-2.446-7.916-1.816-10.262 1.346l-2.863 3.858-.946-.702c-1.045-.775-2.494-.595-3.234.403l-4.469 6.023c-.74.997-.493 2.436.553 3.211l13.882 10.3c1.045.775 2.493.595 3.233-.403l4.469-6.023c.74-.997.493-2.436-.552-3.211zm-9.609 1.742c-.617.832-1.823.982-2.695.336-.871-.647-1.077-1.844-.46-2.676l1.341-1.807c.617-.832 1.823-.982 2.694-.336.872.647 1.078 1.844.461 2.676l-1.341 1.807zM40.163 158.807l-9.781-7.257 2.88-3.881c1.106-1.491 3.275-1.802 4.848-.658 1.588 1.155 1.97 3.336.856 4.838l-.447.602c-.371.501-.248 1.217.276 1.606l1.262.936c.525.389 1.245.3 1.617-.201l.447-.603c2.346-3.162 1.552-7.737-1.769-10.184-3.321-2.446-7.916-1.816-10.262 1.346l-2.863 3.858-.947-.702c-1.045-.775-2.493-.595-3.233.403l-4.469 6.023c-.74.997-.493 2.436.552 3.211l13.882 10.3c1.045.775 2.494.595 3.234-.402l4.469-6.024c.74-.997.493-2.436-.552-3.211zm-9.61 1.742c-.617.832-1.823.982-2.694.336-.872-.647-1.078-1.844-.46-2.676l1.34-1.807c.617-.832 1.823-.982 2.695-.336.872.647 1.077 1.845.46 2.676l-1.34 1.807zM31.533 462.456l-9.78-7.257 2.88-3.881c1.105-1.491 3.274-1.802 4.847-.658 1.589 1.155 1.97 3.335.856 4.837l-.446.603c-.372.5-.249 1.216.276 1.605l1.262.937c.524.389 1.245.299 1.616-.202l.447-.602c2.347-3.162 1.553-7.738-1.768-10.184-3.322-2.447-7.916-1.817-10.262 1.345l-2.863 3.859-.947-.702c-1.045-.776-2.493-.595-3.234.402l-4.468 6.023c-.74.998-.493 2.436.552 3.212l13.882 10.3c1.045.775 2.493.595 3.234-.403l4.469-6.023c.74-.998.492-2.436-.553-3.211zm-9.609 1.742c-.617.832-1.823.982-2.695.335-.871-.646-1.077-1.844-.46-2.676l1.34-1.807c.618-.832 1.824-.982 2.696-.335.871.647 1.077 1.844.46 2.676l-1.34 1.807zM11.12 343.96l-9.78-7.257 2.88-3.881c1.105-1.491 3.274-1.802 4.847-.658 1.589 1.155 1.97 3.335.856 4.837l-.447.603c-.371.5-.248 1.216.276 1.605l1.262.937c.525.389 1.246.299 1.617-.201l.447-.603c2.346-3.162 1.553-7.737-1.769-10.184-3.32-2.447-7.916-1.817-10.262 1.345L0 332.164V351l3.97 2.597c1.045.775 2.493.595 3.233-.403l4.47-6.023c.74-.998.492-2.436-.553-3.211zm-9.609 1.742a1.845 1.845 0 01-1.511.737v-5.204c.657-.539 1.646-.569 2.391-.016.872.647 1.078 1.844.46 2.676l-1.34 1.807zM80.989 395.799l-9.78-7.257 2.88-3.881c1.105-1.491 3.274-1.802 4.847-.658 1.589 1.155 1.97 3.336.856 4.838l-.447.602c-.371.501-.248 1.217.277 1.606l1.262.936c.524.389 1.245.299 1.616-.201l.447-.603c2.346-3.162 1.553-7.737-1.769-10.184-3.32-2.446-7.915-1.816-10.262 1.346l-2.862 3.858-.947-.702c-1.045-.775-2.493-.595-3.234.403l-4.469 6.023c-.74.997-.492 2.436.553 3.211l13.882 10.3c1.045.775 2.493.595 3.234-.403l4.468-6.023c.74-.997.493-2.436-.552-3.211zm-9.609 1.742c-.617.832-1.823.982-2.695.336-.871-.647-1.077-1.844-.46-2.676l1.34-1.807c.618-.832 1.824-.982 2.695-.336.872.647 1.078 1.844.46 2.676l-1.34 1.807zM60.576 277.303l-9.78-7.257 2.879-3.881c1.106-1.491 3.275-1.802 4.848-.658 1.589 1.155 1.97 3.336.856 4.838l-.447.602c-.371.501-.248 1.217.276 1.606l1.262.936c.525.389 1.246.299 1.617-.201l.447-.603c2.346-3.162 1.553-7.737-1.769-10.184-3.32-2.446-7.916-1.816-10.262 1.346l-2.863 3.858-.946-.702c-1.045-.775-2.494-.595-3.234.402l-4.469 6.024c-.74.997-.493 2.436.553 3.211l13.882 10.3c1.045.775 2.493.595 3.233-.403l4.47-6.023c.74-.997.492-2.436-.553-3.211zm-9.61 1.742c-.616.832-1.822.982-2.694.336-.871-.647-1.077-1.845-.46-2.676l1.34-1.807c.618-.832 1.824-.982 2.695-.336.872.647 1.078 1.844.46 2.676l-1.34 1.807zM130.445 329.142l-9.781-7.257 2.88-3.881c1.106-1.49 3.275-1.801 4.848-.658 1.589 1.156 1.971 3.336.856 4.838l-.447.602c-.371.501-.248 1.217.276 1.606l1.262.936c.525.389 1.246.3 1.617-.201l.447-.602c2.346-3.162 1.552-7.738-1.769-10.185-3.321-2.446-7.916-1.816-10.262 1.346l-2.863 3.859-.946-.703c-1.045-.775-2.494-.595-3.234.403l-4.469 6.023c-.74.998-.492 2.436.553 3.211l13.882 10.3c1.045.776 2.493.595 3.233-.402l4.469-6.023c.74-.998.493-2.437-.552-3.212zm-9.609 1.743c-.617.832-1.823.982-2.695.335-.871-.647-1.077-1.844-.46-2.676l1.341-1.807c.617-.832 1.823-.982 2.694-.336.872.647 1.078 1.845.461 2.677l-1.341 1.807zM110.032 210.646l-9.781-7.257 2.88-3.881c1.106-1.49 3.275-1.801 4.848-.658 1.589 1.156 1.97 3.336.856 4.838l-.447.602c-.371.501-.248 1.217.276 1.606l1.262.936c.525.39 1.246.3 1.617-.201l.447-.602c2.346-3.162 1.552-7.738-1.769-10.185-3.321-2.446-7.916-1.816-10.262 1.346l-2.863 3.859-.946-.703c-1.046-.775-2.494-.595-3.234.403l-4.469 6.023c-.74.998-.493 2.436.552 3.211l13.882 10.3c1.046.776 2.494.595 3.234-.402l4.469-6.023c.74-.998.493-2.436-.552-3.212zm-9.609 1.743c-.618.832-1.823.982-2.695.335-.872-.647-1.078-1.844-.46-2.676l1.34-1.807c.618-.832 1.824-.982 2.695-.335.872.646 1.078 1.844.46 2.676l-1.34 1.807zM179.901 262.485l-9.781-7.256 2.88-3.881c1.106-1.491 3.275-1.802 4.848-.658 1.589 1.155 1.97 3.335.856 4.837l-.447.603c-.371.5-.248 1.216.276 1.605l1.262.937c.525.389 1.246.299 1.617-.202l.447-.602c2.346-3.162 1.552-7.738-1.769-10.184-3.321-2.447-7.916-1.817-10.262 1.345l-2.863 3.859-.946-.702c-1.045-.776-2.494-.595-3.234.402l-4.469 6.023c-.74.998-.493 2.436.552 3.212l13.882 10.3c1.046.775 2.494.595 3.234-.403l4.469-6.023c.74-.998.493-2.436-.552-3.212zm-9.609 1.743c-.618.832-1.823.982-2.695.335-.872-.646-1.078-1.844-.46-2.676l1.34-1.807c.618-.832 1.824-.982 2.695-.335.872.646 1.078 1.844.46 2.676l-1.34 1.807zM102.211 500c-2.885-2.487-7.31-2.763-10.148 0h10.148zM150.858 447.638l-9.78-7.257 2.879-3.881c1.106-1.491 3.275-1.801 4.848-.658 1.589 1.156 1.971 3.336.856 4.838l-.447.602c-.371.501-.248 1.217.277 1.606l1.262.936c.524.389 1.245.3 1.616-.201l.447-.602c2.347-3.162 1.553-7.738-1.768-10.185-3.322-2.446-7.916-1.816-10.263 1.346l-2.862 3.859-.947-.703c-1.045-.775-2.493-.595-3.234.403l-4.469 6.023c-.74.998-.492 2.436.553 3.211l13.882 10.3c1.045.776 2.493.595 3.233-.402l4.469-6.023c.741-.998.493-2.437-.552-3.212zm-9.609 1.743c-.617.832-1.823.982-2.695.335-.871-.647-1.077-1.844-.46-2.676l1.341-1.807c.617-.832 1.823-.982 2.694-.336.872.647 1.078 1.845.461 2.677l-1.341 1.807zM220.727 499.477l-9.78-7.256 2.879-3.882c1.106-1.49 3.275-1.801 4.848-.658 1.589 1.156 1.971 3.336.856 4.838l-.446.602c-.372.501-.249 1.217.276 1.606l1.262.936c.524.39 1.245.3 1.617-.201l.446-.602c2.347-3.162 1.553-7.738-1.768-10.184-3.321-2.447-7.916-1.817-10.263 1.345l-2.862 3.859-.947-.702c-1.045-.776-2.493-.596-3.234.402l-4.468 6.023c-.741.998-.493 2.436.552 3.212l1.597 1.185h19.955a2.454 2.454 0 00-.52-.523zm-13.119.523a1.809 1.809 0 01.355-1.121l1.341-1.807c.617-.832 1.823-.982 2.695-.335.871.646 1.077 1.844.46 2.676l-.436.587h-4.415zM200.314 380.981l-9.781-7.256 2.88-3.881c1.106-1.491 3.275-1.802 4.848-.658 1.589 1.155 1.971 3.335.856 4.837l-.447.603c-.371.5-.248 1.216.276 1.605l1.262.937c.525.389 1.246.299 1.617-.202l.447-.602c2.346-3.162 1.553-7.738-1.769-10.184-3.321-2.447-7.916-1.817-10.262 1.345l-2.863 3.859-.946-.702c-1.045-.776-2.494-.596-3.234.402l-4.469 6.023c-.74.998-.492 2.436.553 3.212l13.882 10.299c1.045.776 2.493.596 3.233-.402l4.469-6.023c.74-.998.493-2.436-.552-3.212zm-9.609 1.743c-.617.832-1.823.982-2.695.335-.871-.646-1.077-1.844-.46-2.676l1.341-1.807c.617-.832 1.823-.982 2.694-.335.872.646 1.078 1.844.461 2.676l-1.341 1.807zM270.183 432.821l-9.78-7.257 2.879-3.881c1.106-1.491 3.275-1.802 4.848-.658 1.589 1.155 1.971 3.335.856 4.837l-.446.603c-.372.5-.249 1.216.276 1.605l1.262.937c.524.389 1.245.299 1.617-.201l.446-.603c2.347-3.162 1.553-7.737-1.768-10.184-3.321-2.447-7.916-1.817-10.262 1.346l-2.863 3.858-.947-.702c-1.045-.776-2.493-.595-3.234.402l-4.468 6.024c-.741.997-.493 2.436.552 3.211l13.882 10.3c1.045.775 2.493.595 3.234-.403l4.469-6.023c.74-.998.492-2.436-.553-3.211zm-9.609 1.742c-.617.832-1.823.982-2.695.336-.871-.647-1.077-1.845-.46-2.677l1.341-1.807c.617-.832 1.823-.982 2.695-.335.871.647 1.077 1.844.46 2.676l-1.341 1.807zM249.77 314.325l-9.781-7.257 2.88-3.881c1.106-1.491 3.275-1.802 4.848-.658 1.589 1.155 1.971 3.335.856 4.837l-.447.603c-.371.5-.248 1.216.276 1.606l1.263.936c.524.389 1.245.299 1.616-.201l.447-.603c2.346-3.162 1.553-7.737-1.769-10.184-3.321-2.447-7.916-1.817-10.262 1.346l-2.863 3.858-.946-.702c-1.045-.776-2.494-.595-3.234.402l-4.469 6.024c-.74.997-.493 2.436.553 3.211l13.882 10.3c1.045.775 2.493.595 3.233-.403l4.469-6.023c.74-.997.493-2.436-.552-3.211zm-9.609 1.742c-.617.832-1.823.982-2.695.336-.871-.647-1.077-1.845-.46-2.677l1.34-1.807c.618-.832 1.824-.982 2.695-.335.872.647 1.078 1.844.461 2.676l-1.341 1.807zM319.639 366.164l-9.781-7.257 2.88-3.881c1.106-1.491 3.275-1.802 4.848-.658 1.589 1.155 1.971 3.336.856 4.838l-.447.602c-.371.501-.248 1.217.277 1.606l1.262.936c.524.389 1.245.3 1.616-.201l.447-.602c2.346-3.163 1.553-7.738-1.768-10.185-3.322-2.446-7.916-1.816-10.263 1.346l-2.863 3.858-.946-.702c-1.045-.775-2.494-.595-3.234.403l-4.469 6.023c-.74.997-.492 2.436.553 3.211l13.882 10.3c1.045.775 2.493.595 3.233-.402l4.469-6.024c.74-.997.493-2.436-.552-3.211zm-9.609 1.743c-.617.831-1.823.982-2.695.335-.871-.647-1.077-1.844-.46-2.676l1.341-1.807c.617-.832 1.823-.982 2.694-.336.872.647 1.078 1.845.461 2.677l-1.341 1.807zM340.052 484.66l-9.78-7.257 2.879-3.881c1.106-1.491 3.275-1.802 4.848-.658 1.589 1.155 1.971 3.336.856 4.838l-.446.602c-.372.501-.249 1.217.276 1.606l1.262.936c.524.389 1.245.3 1.617-.201l.446-.602c2.347-3.163 1.553-7.738-1.768-10.185-3.321-2.446-7.916-1.816-10.262 1.346l-2.863 3.858-.947-.702c-1.045-.775-2.493-.595-3.234.403l-4.468 6.023c-.741.997-.493 2.436.552 3.211l13.882 10.3c1.045.775 2.493.595 3.234-.402l4.469-6.024c.74-.997.492-2.436-.553-3.211zm-9.609 1.742c-.617.832-1.823.983-2.695.336-.871-.647-1.077-1.844-.46-2.676l1.341-1.807c.617-.832 1.823-.982 2.695-.336.871.647 1.077 1.845.46 2.677l-1.341 1.806zM389.508 418.003l-9.78-7.256 2.879-3.882c1.106-1.49 3.275-1.801 4.848-.658 1.589 1.156 1.971 3.336.856 4.838l-.447.602c-.371.501-.248 1.217.277 1.606l1.262.936c.524.39 1.245.3 1.616-.201l.447-.602c2.347-3.162 1.553-7.738-1.768-10.184-3.322-2.447-7.916-1.817-10.263 1.345l-2.862 3.859-.947-.703c-1.045-.775-2.493-.595-3.234.403l-4.469 6.023c-.74.998-.492 2.436.553 3.212l13.882 10.299c1.045.776 2.493.595 3.234-.402l4.468-6.023c.741-.998.493-2.436-.552-3.212zm-9.609 1.743c-.617.832-1.823.982-2.695.335-.871-.646-1.077-1.844-.46-2.676l1.341-1.807c.617-.832 1.823-.982 2.694-.335.872.646 1.078 1.844.461 2.676l-1.341 1.807zM459.377 469.842l-9.78-7.256 2.879-3.881c1.106-1.491 3.275-1.802 4.848-.658 1.589 1.155 1.971 3.335.856 4.837l-.446.603c-.372.5-.249 1.216.276 1.605l1.262.937c.524.389 1.245.299 1.617-.202l.446-.602c2.347-3.162 1.553-7.738-1.768-10.184-3.321-2.447-7.916-1.817-10.262 1.345l-2.863 3.859-.947-.702c-1.045-.776-2.493-.595-3.234.402l-4.468 6.023c-.741.998-.493 2.436.552 3.212l13.882 10.3c1.045.775 2.493.595 3.234-.403l4.468-6.023c.741-.998.493-2.436-.552-3.212zm-9.609 1.743c-.617.832-1.823.982-2.695.335-.871-.646-1.077-1.844-.46-2.676l1.341-1.807c.617-.832 1.823-.982 2.695-.335.871.647 1.077 1.844.46 2.676l-1.341 1.807z" fill="#000"/></mask><g mask="url(#a)"><path d="M0 0h500v500H0V0z" fill="#000"/></g></g><g filter="url(#filter0_d)" fill="#EEE"><path d="M140.494 352.224c0-4.566-1.612-8.057-4.834-10.474-3.223-2.471-9.024-5.049-17.403-7.734-8.379-2.74-15.012-5.425-19.9-8.057-13.32-7.197-19.98-16.892-19.98-29.084 0-6.338 1.773-11.978 5.317-16.919 3.599-4.996 8.728-8.89 15.389-11.683 6.713-2.793 14.233-4.189 22.558-4.189 8.379 0 15.845 1.531 22.398 4.592 6.552 3.008 11.628 7.278 15.227 12.81 3.652 5.533 5.478 11.817 5.478 18.853h-24.17c0-5.371-1.692-9.534-5.075-12.488-3.384-3.008-8.138-4.512-14.261-4.512-5.908 0-10.5 1.263-13.777 3.787-3.276 2.471-4.914 5.747-4.914 9.829 0 3.814 1.907 7.009 5.72 9.587 3.867 2.579 9.534 4.996 17 7.251 13.75 4.136 23.767 9.266 30.051 15.389 6.284 6.123 9.426 13.75 9.426 22.88 0 10.152-3.84 18.128-11.521 23.929-7.68 5.747-18.02 8.62-31.018 8.62-9.023 0-17.241-1.638-24.653-4.914-7.412-3.33-13.079-7.869-17-13.616-3.867-5.747-5.8-12.407-5.8-19.98h24.25c0 12.944 7.734 19.416 23.203 19.416 5.747 0 10.232-1.155 13.455-3.464 3.222-2.364 4.834-5.64 4.834-9.829zm79.277 32.387c-12.783 0-23.203-3.921-31.26-11.762-8.003-7.842-12.004-18.289-12.004-31.341v-2.256c0-8.754 1.692-16.569 5.076-23.444 3.383-6.929 8.164-12.246 14.34-15.953 6.231-3.759 13.321-5.639 21.27-5.639 11.924 0 21.296 3.76 28.118 11.279 6.875 7.52 10.312 18.181 10.312 31.985v9.507h-55.51c.752 5.693 3.008 10.259 6.767 13.696 3.814 3.438 8.621 5.156 14.422 5.156 8.97 0 15.979-3.249 21.028-9.748l11.44 12.81c-3.491 4.941-8.218 8.808-14.18 11.601-5.962 2.74-12.568 4.109-19.819 4.109zm-2.659-71.543c-4.619 0-8.379 1.558-11.279 4.673-2.847 3.115-4.673 7.573-5.478 13.374h32.387v-1.853c-.107-5.156-1.504-9.131-4.189-11.924-2.686-2.846-6.499-4.27-11.441-4.27zm99.016 45.843c0-2.847-1.423-5.076-4.27-6.687-2.793-1.665-7.304-3.142-13.535-4.432-20.732-4.35-31.098-13.159-31.098-26.425 0-7.735 3.195-14.18 9.587-19.336 6.445-5.21 14.851-7.815 25.217-7.815 11.065 0 19.9 2.605 26.507 7.815 6.66 5.21 9.99 11.977 9.99 20.302h-23.284c0-3.33-1.074-6.069-3.222-8.217-2.149-2.202-5.506-3.304-10.071-3.304-3.921 0-6.956.887-9.104 2.659-2.149 1.773-3.223 4.029-3.223 6.768 0 2.578 1.209 4.673 3.626 6.284 2.47 1.558 6.606 2.927 12.407 4.109 5.801 1.128 10.688 2.417 14.663 3.867 12.3 4.512 18.45 12.327 18.45 23.445 0 7.949-3.411 14.394-10.232 19.336-6.822 4.887-15.63 7.331-26.426 7.331-7.305 0-13.804-1.289-19.497-3.867-5.64-2.632-10.071-6.203-13.294-10.715-3.222-4.566-4.834-9.48-4.834-14.744h22.076c.214 4.136 1.745 7.305 4.592 9.507 2.847 2.202 6.66 3.303 11.44 3.303 4.458 0 7.815-.832 10.071-2.497 2.31-1.719 3.464-3.948 3.464-6.687zm84.917 0c0-2.847-1.423-5.076-4.27-6.687-2.793-1.665-7.304-3.142-13.535-4.432-20.732-4.35-31.098-13.159-31.098-26.425 0-7.735 3.195-14.18 9.587-19.336 6.445-5.21 14.851-7.815 25.217-7.815 11.065 0 19.9 2.605 26.507 7.815 6.66 5.21 9.99 11.977 9.99 20.302h-23.284c0-3.33-1.074-6.069-3.222-8.217-2.149-2.202-5.506-3.304-10.071-3.304-3.921 0-6.956.887-9.104 2.659-2.149 1.773-3.223 4.029-3.223 6.768 0 2.578 1.209 4.673 3.626 6.284 2.47 1.558 6.606 2.927 12.407 4.109 5.801 1.128 10.688 2.417 14.663 3.867 12.3 4.512 18.45 12.327 18.45 23.445 0 7.949-3.411 14.394-10.232 19.336-6.822 4.887-15.63 7.331-26.426 7.331-7.305 0-13.804-1.289-19.497-3.867-5.64-2.632-10.071-6.203-13.294-10.715-3.222-4.566-4.834-9.48-4.834-14.744h22.076c.214 4.136 1.745 7.305 4.592 9.507 2.847 2.202 6.66 3.303 11.44 3.303 4.458 0 7.815-.832 10.071-2.497 2.31-1.719 3.464-3.948 3.464-6.687zM107.969 198.912V244H81.602V116.031h49.921c9.61 0 18.047 1.758 25.313 5.274 7.324 3.515 12.949 8.525 16.875 15.029 3.926 6.445 5.889 13.799 5.889 22.061 0 12.539-4.307 22.441-12.92 29.707-8.555 7.207-20.42 10.81-35.596 10.81h-23.115zm0-21.357h23.554c6.973 0 12.276-1.641 15.909-4.922 3.691-3.281 5.537-7.969 5.537-14.063 0-6.269-1.846-11.338-5.537-15.205-3.692-3.867-8.789-5.859-15.293-5.976h-24.17v40.166zM301.943 244h-26.367v-54.844H224.16V244h-26.367V116.031h26.367v51.856h51.416v-51.856h26.367V244zm49.483-45.088V244h-26.367V116.031h49.922c9.609 0 18.046 1.758 25.312 5.274 7.324 3.515 12.949 8.525 16.875 15.029 3.926 6.445 5.889 13.799 5.889 22.061 0 12.539-4.307 22.441-12.92 29.707-8.555 7.207-20.42 10.81-35.596 10.81h-23.115zm0-21.357h23.555c6.972 0 12.275-1.641 15.908-4.922 3.691-3.281 5.537-7.969 5.537-14.063 0-6.269-1.846-11.338-5.537-15.205-3.692-3.867-8.789-5.859-15.293-5.976h-24.17v40.166z"/></g><defs><filter id="filter0_d" x="70.751" y="116.031" width="356.933" height="276.58" filterUnits="userSpaceOnUse" color-interpolation-filters="sRGB"><feFlood flood-opacity="0" result="BackgroundImageFix"/><feColorMatrix in="SourceAlpha" type="matrix" values="0 0 0 0 0 0 0 0 0 0 0 0 0 0 0 0 0 0 127 0"/><feOffset dy="4"/><feGaussianBlur stdDeviation="2"/><feColorMatrix type="matrix" values="0 0 0 0 0 0 0 0 0 0 0 0 0 0 0 0 0 0 0.25 0"/><feBlend mode="normal" in2="BackgroundImageFix" result="effect1_dropShadow"/><feBlend mode="normal" in="SourceGraphic" in2="effect1_dropShadow" result="shape"/></filter></defs></svg>