<svg width="80" height="80" fill="none" xmlns="http://www.w3.org/2000/svg"><g filter="url(#filter0_d)"><path d="M48.643 40H36.464v-4.833c0-1.856 1.557-3.398 3.502-3.417 1.964-.019 3.57 1.505 3.57 3.375v.75c0 .623.525 1.125 1.178 1.125h1.572c.653 0 1.178-.502 1.178-1.125v-.75c0-3.938-3.364-7.139-7.489-7.125-4.125.014-7.44 3.258-7.44 7.195V40h-1.178C30.056 40 29 41.008 29 42.25v7.5c0 1.242 1.056 2.25 2.357 2.25h17.286C49.944 52 51 50.992 51 49.75v-7.5c0-1.242-1.056-2.25-2.357-2.25zm-6.679 7.125C41.964 48.161 41.085 49 40 49s-1.964-.839-1.964-1.875v-2.25c0-1.036.879-1.875 1.964-1.875s1.964.84 1.964 1.875v2.25z" fill="#000"/></g><defs><filter id="filter0_d" x="25" y="28" width="30" height="32" filterUnits="userSpaceOnUse" color-interpolation-filters="sRGB"><feFlood flood-opacity="0" result="BackgroundImageFix"/><feColorMatrix in="SourceAlpha" values="0 0 0 0 0 0 0 0 0 0 0 0 0 0 0 0 0 0 127 0"/><feOffset dy="4"/><feGaussianBlur stdDeviation="2"/><feColorMatrix values="0 0 0 0 0 0 0 0 0 0 0 0 0 0 0 0 0 0 0.25 0"/><feBlend in2="BackgroundImageFix" result="effect1_dropShadow"/><feBlend in="SourceGraphic" in2="effect1_dropShadow" result="shape"/></filter></defs></svg>