<?xml version="1.0" encoding="iso-8859-1"?>
<!-- Generator: Adobe Illustrator 21.0.0, SVG Export Plug-In . SVG Version: 6.00 Build 0)  -->
<svg version="1.1" id="Capa_1" xmlns="http://www.w3.org/2000/svg" xmlns:xlink="http://www.w3.org/1999/xlink" x="0px" y="0px"
	 viewBox="0 0 512 512" style="enable-background:new 0 0 512 512;" xml:space="preserve">
<g>
	<g>
		<path d="M109.14,422.311V467c0,24.813,20.187,45,45,45h203.72c24.813,0,45-20.187,45-45v-44.689H109.14z M271,468.874h-30
			c-8.284,0-15-6.716-15-15s6.716-15,15-15h30c8.284,0,15,6.716,15,15S279.284,468.874,271,468.874z"/>
	</g>
</g>
<g>
	<g>
		<path d="M357.86,0H154.14c-24.813,0-45,20.187-45,45v44.689h293.72V45C402.86,20.187,382.674,0,357.86,0z"/>
	</g>
</g>
<g>
	<g>
		<path d="M109.14,119.689V392.31h293.72V119.689H109.14z M256,309.633c-36.867,0-66.861-29.994-66.861-66.861
			c0-31.709,22.196-58.314,51.861-65.144v70.465c0,8.284,6.716,15,15,15h63.694C311.072,290.053,285.784,309.633,256,309.633z
			 M271,233.093v-55.465c26.59,6.121,47.17,28.13,51.152,55.465H271z"/>
	</g>
</g>
<g>
</g>
<g>
</g>
<g>
</g>
<g>
</g>
<g>
</g>
<g>
</g>
<g>
</g>
<g>
</g>
<g>
</g>
<g>
</g>
<g>
</g>
<g>
</g>
<g>
</g>
<g>
</g>
<g>
</g>
</svg>
