<svg xmlns="http://www.w3.org/2000/svg" viewBox="0 0 512 512"><path d="M109.14 422.311V467c0 24.813 20.187 45 45 45h203.72c24.813 0 45-20.187 45-45v-44.689H109.14zM271 468.874h-30c-8.284 0-15-6.716-15-15s6.716-15 15-15h30c8.284 0 15 6.716 15 15s-6.716 15-15 15zM357.86 0H154.14c-24.813 0-45 20.187-45 45v44.689h293.72V45c0-24.813-20.186-45-45-45zM109.14 119.689V392.31h293.72V119.689H109.14zM256 309.633c-36.867 0-66.861-29.994-66.861-66.861 0-31.709 22.196-58.314 51.861-65.144v70.465c0 8.284 6.716 15 15 15h63.694c-8.622 26.96-33.91 46.54-63.694 46.54zm15-76.54v-55.465c26.59 6.121 47.17 28.13 51.152 55.465H271z"/></svg>