<svg height="512" width="512" xmlns="http://www.w3.org/2000/svg"><path d="M456 456V56a32.036 32.036 0 00-32-32H88a32.036 32.036 0 00-32 32v264h16v-24h80v24h16v-24h80v24h16v-24h80v48h-48v16h48v48h-48v16h48v32a32.036 32.036 0 0032 32h48a32.036 32.036 0 0032-32zM344 152h-80v-48h80zm16-48h80v48h-80zm-96-16V40h80v48zm-16 0h-80V40h80zm0 16v48h-80v-48zm-96 48H72v-48h80zm0 16v48H72v-48zm16 0h80v48h-80zm96 0h80v48h-80zm96 0h80v48h-80zm80 64v48h-80v-48zm0-176v32h-80V40h64a16.019 16.019 0 0116 16zM88 40h64v48H72V56a16.019 16.019 0 0116-16zM72 280v-48h80v48zm96 0v-48h80v48zm96 0v-48h80v48zm96 16h80v48h-80zm80 64v48h-80v-48zm-80 96v-32h80v32a16.019 16.019 0 01-16 16h-48a16.019 16.019 0 01-16-16z"/><path d="M88 56h16v16H88zm32 0h16v16h-16zm64 0h48v16h-48zm96 0h48v16h-48zm96 0h48v16h-48zm-96 400v-88a32.036 32.036 0 00-32-32H131.313l-13.656-13.657a8 8 0 00-11.314 0L92.687 336H56a32.036 32.036 0 00-32 32v88a32.036 32.036 0 0032 32h192a32.036 32.036 0 0032-32zm-240 0v-88a16.019 16.019 0 0116-16h40a8 8 0 005.657-2.343L112 339.313l10.343 10.344A8 8 0 00128 352h120a16.019 16.019 0 0116 16v88a16.019 16.019 0 01-16 16H56a16.019 16.019 0 01-16-16z"/><path d="M80 376h16v16H80zm32 0h128v16H112zm-48 32h176v16H64zm0 32h144v16H64z"/></svg>