<svg id="Capa_1" enable-background="new 0 0 512 512" height="512" viewBox="0 0 512 512" width="512" xmlns="http://www.w3.org/2000/svg"><g><path d="m181 31h90v60h-90z"/><path d="m301 31h90v60h-90z"/><path d="m497 31h-76v60h91v-45c0-8.291-6.709-15-15-15z"/><path d="m361 316h-15c-3.984 0-7.793-1.582-10.605-4.395l-49.395-49.394-49.395 49.395c-2.812 2.812-6.621 4.394-10.605 4.394h-75v30h210z"/><path d="m275.395 230.395c5.859-5.859 15.352-5.859 21.211 0l55.605 55.605h8.789v-90h-210v90h68.789zm-79.395 25.605c-8.284 0-15-6.716-15-15 0-8.286 6.716-15 15-15s15 6.714 15 15c0 8.284-6.716 15-15 15z"/><path d="m151 106v-75h-136c-8.291 0-15 6.709-15 15v420c0 8.291 6.709 15 15 15h482c8.291 0 15-6.709 15-15v-345h-346c-8.291 0-15-6.709-15-15zm225 330h-240c-8.291 0-15-6.709-15-15s6.709-15 15-15h240c8.291 0 15 6.709 15 15s-6.709 15-15 15zm15-255v180c0 8.291-6.709 15-15 15h-240c-8.291 0-15-6.709-15-15v-180c0-8.291 6.709-15 15-15h240c8.291 0 15 6.709 15 15z"/></g></svg>